<?xml version="1.0" standalone="no"?>
<!DOCTYPE svg PUBLIC "-//W3C//DTD SVG 1.1//EN" "http://www.w3.org/Graphics/SVG/1.1/DTD/svg11.dtd" >
<svg xmlns="http://www.w3.org/2000/svg" xmlns:xlink="http://www.w3.org/1999/xlink" version="1.1">
<metadata>
Created by FontForge 20161004 at Mon Aug 27 10:30:48 2018
 By fenhl
</metadata>
<defs>
<font id="mana" horiz-adv-x="1024" >
  <font-face 
    font-family="mana"
    font-weight="400"
    font-stretch="normal"
    units-per-em="1024"
    panose-1="2 0 5 3 0 0 0 0 0 0"
    ascent="960"
    descent="-64"
    bbox="-1.652 -64.0005 5116.59 960.001"
    underline-thickness="0"
    underline-position="0"
    unicode-range="U+0020-E928"
  />
<missing-glyph 
 />
    <glyph glyph-name=".notdef" 
 />
    <glyph glyph-name="space" unicode=" " horiz-adv-x="512" 
 />
    <glyph glyph-name="w" unicode="&#xe600;" 
d="M1021.28 372.528c-70.064 39.5 -114.988 59.278 -134.734 59.278c-14.352 0 -25.576 -11.02 -33.68 -33.02c-8.096 -22.03 -24.242 -32.996 -48.494 -32.996c-9.888 0 -30.092 3.588 -60.634 10.764c-17.064 -26.056 -25.608 -42.672 -25.608 -49.85
c0 -9.888 7.358 -21.528 22.042 -35.036c14.684 -13.476 27.07 -20.194 37.184 -20.194c6.428 0 15.12 1.336 26.152 4.048c11.01 2.67 18.378 4.026 22.04 4.026c11.032 0 16.52 -20.216 16.52 -60.634c0 -38.626 -8.97 -97.904 -26.942 -177.846
c-23.364 91.624 -48.054 137.448 -74.09 137.448c-3.608 0 -11.01 -2.692 -22.232 -8.116c-11.246 -5.362 -19.542 -8.052 -24.924 -8.052c-26.036 0 -49.39 23.782 -70.064 71.42c-41.316 -6.302 -61.99 -27.414 -61.99 -63.368c0 -17.984 8.296 -32.326 24.944 -43.09
c16.586 -10.764 24.926 -18.442 24.926 -22.906c0 -24.272 -35.498 -61.552 -106.458 -111.838c-37.706 -26.944 -63.784 -45.802 -78.126 -56.566c12.538 16.146 25.116 37.236 37.728 63.304c14.352 29.634 21.55 52.54 21.55 68.728c0 8.97 -10.326 21.572 -30.99 37.728
c-20.674 16.148 -30.968 33.222 -30.968 51.184c0 15.25 5.36 34.098 16.146 56.588c-11.682 13.476 -25.576 20.236 -41.754 20.236c-35.934 0 -53.874 -11.704 -53.874 -35.028c0 16.168 0 4.048 0 -36.37c0.876 -29.646 -21.572 -44.468 -67.394 -44.468
c-35.016 0 -93.878 8.106 -176.488 24.252c93.418 23.366 140.116 50.308 140.116 80.838c0 -3.588 -1.794 7.176 -5.382 32.336c-3.61 27.808 16.168 52.978 59.278 75.424c-8.094 41.296 -29.612 62.002 -64.682 62.002c-5.382 0 -15.292 -9.44 -29.634 -28.268
c-14.374 -18.912 -27.838 -28.32 -40.398 -28.32c-21.57 0 -49.432 23.344 -83.528 70.086c-16.19 23.322 -40.9 57.922 -74.122 103.744c20.652 -10.808 41.316 -21.572 61.99 -32.368c26.942 -12.558 48.492 -18.858 64.682 -18.858c12.58 0 24.924 11.01 37.044 33.018
c12.12 22.01 28.074 33.02 47.83 33.02c2.714 0 20.674 -5.382 53.896 -16.19c17.044 26.046 25.608 45.364 25.608 57.944c0 10.784 -6.524 23.13 -19.542 37.066c-13.038 13.914 -24.924 20.876 -35.71 20.876c-4.506 0 -11.448 -1.334 -20.898 -4.046
c-9.408 -2.692 -16.37 -4.048 -20.856 -4.048c-16.188 0 -24.272 20.214 -24.272 60.634c0 10.786 10.346 72.296 31.01 184.582c-0.918 -13.454 4.924 -38.624 17.502 -75.434c15.272 -44.926 33.222 -67.372 53.918 -67.372c3.566 0 10.764 2.69 21.55 8.094
c10.764 5.382 19.296 8.052 25.586 8.052c20.654 0 37.708 -11.682 51.206 -34.994l20.214 -36.372c18.858 0 34.578 6.716 47.136 20.194c12.58 13.476 18.88 29.654 18.88 48.512c0 19.756 -8.298 34.814 -24.924 45.14c-16.648 10.326 -24.946 18.186 -24.946 23.568
c0 18.88 29.656 50.746 88.934 95.66c47.594 35.914 78.584 57.026 92.98 63.326c-38.626 -52.102 -57.944 -90.246 -57.944 -114.52c0 -12.578 7.614 -26.066 22.906 -40.418c18.86 -17.066 29.634 -29.196 32.326 -36.372c8.97 -20.696 8.072 -48.974 -2.692 -84.886
c24.252 -17.086 42.652 -25.586 55.252 -25.586c26.014 0 39.064 13.498 39.064 40.418c0 2.692 -1.122 11.224 -3.354 25.586c-2.274 14.354 -2.916 22.448 -2.04 24.252c3.588 12.58 28.3 18.88 74.1 18.88c28.738 0 88.454 -8.094 179.202 -24.272
c-19.778 -5.382 -49.412 -13.456 -88.912 -24.242c-35.934 -10.784 -53.918 -22.906 -53.918 -36.372c0 -6.3 2.232 -17.064 6.738 -32.324c4.486 -15.292 6.76 -26.484 6.76 -33.702c0 -12.558 -8.094 -24.24 -24.25 -34.994l-45.824 -32.368
c10.786 -19.778 17.962 -31.448 21.572 -35.016c8.97 -10.764 21.09 -16.168 36.372 -16.168c10.786 0 20.652 9.43 29.634 28.278c8.97 18.88 23.364 28.298 43.11 28.298c24.24 0 51.664 -22.468 82.194 -67.392c17.012 -25.202 43.516 -63.358 79.45 -114.552z
M722.202 450.654c0 57.462 -21.134 107.332 -63.348 149.566c-42.212 42.214 -92.062 63.326 -149.546 63.326c-58.402 0 -108.71 -20.898 -150.902 -62.674c-42.212 -41.754 -63.784 -91.838 -64.66 -150.208c-0.918 -57.484 20.418 -107.108 63.988 -148.84
c43.57 -41.776 94.092 -62.674 151.564 -62.674c61.072 0 112.042 20 152.9 59.96c40.898 39.94 60.88 90.45 60.004 151.544zM701.986 450.654c0 -54.794 -18.42 -100.178 -55.252 -136.048c-36.852 -35.956 -82.654 -53.918 -137.426 -53.918
c-52.998 0 -98.362 18.4 -136.068 55.252c-37.708 36.79 -56.588 81.714 -56.588 134.714c0 52.08 19.062 96.792 57.228 134.05c38.21 37.27 83.328 55.936 135.428 55.936c52.082 0 97.22 -18.858 135.408 -56.608c38.166 -37.728 57.27 -82.174 57.27 -133.378z" />
    <glyph glyph-name="u" unicode="&#xe601;" 
d="M739.504 28.968c-60.906 -61.974 -135.936 -92.968 -225.048 -92.968c-100.018 0 -179.372 34.226 -238.064 102.714c-55.46 65.232 -83.172 148.378 -83.172 249.45c0 108.696 47.292 232.658 141.864 371.824c77.154 114.114 167.934 214.13 272.302 300.012
c-15.23 -69.584 -22.812 -119.026 -22.812 -148.378c0 -67.42 21.17 -133.174 63.564 -197.31c52.19 -76.086 91.848 -132.652 119.05 -169.576c42.394 -64.162 63.592 -126.658 63.592 -187.502c0.024 -90.244 -30.422 -166.342 -91.276 -228.266zM737.862 377.1
c-16.298 36.402 -35.332 60.588 -57.076 72.56c3.256 -6.54 4.898 -15.776 4.898 -27.736c0 -22.838 -6.514 -55.436 -19.58 -97.828l-21.172 -65.232c0 -38.042 18.982 -57.076 57.05 -57.076c40.206 0 60.334 26.654 60.334 79.914c0 27.15 -8.142 58.934 -24.454 95.398z
" />
    <glyph glyph-name="b" unicode="&#xe602;" 
d="M1004.99 464.734c0 -66.842 -24.324 -112.426 -72.924 -136.726c-14.198 -7.098 -58.752 -16.704 -133.698 -28.866c-48.6 -8.116 -72.9 -26.856 -72.9 -56.196v-123.05c0 -5.112 1.514 -20.774 4.542 -47.11l4.568 -48.624c0 -15.202 -3.55 -40.046 -10.648 -74.45
c-19.236 -4.046 -41.526 -8.588 -66.844 -13.712c-8.116 30.418 -12.162 51.168 -12.162 62.336c0 5.04 1.272 12.66 3.792 22.798c2.508 10.104 3.828 17.698 3.828 22.81c0 7.026 -6.298 26.808 -18.886 59.2h-23.56c-3.126 -5.064 -4.168 -11.642 -3.15 -19.734
c4.046 -17.226 5.56 -31.894 4.568 -44.056c-17.226 -12.162 -41.03 -28.358 -71.41 -48.612c-7.098 2.01 -9.606 3.028 -7.62 3.028v107.86c-1.986 5.038 -7.074 7.038 -15.19 6.08h-18.22l-18.218 -142.782c-14.222 -1.018 -31.398 -1.018 -51.652 0
c-7.124 33.408 -19.758 83.014 -37.976 148.864h-12.162c-11.17 -35.482 -17.226 -54.742 -18.244 -57.77c0 -4.046 1.26 -11.884 3.804 -23.524c2.508 -11.654 3.792 -19.492 3.792 -23.538c0 -3.028 -1.018 -10.624 -3.03 -22.786l-4.566 -36.462
c-2.034 -2.01 -4.566 -3.028 -7.596 -3.028c-30.38 0 -50.658 7.596 -60.762 22.762c-10.126 15.214 -14.196 36.486 -12.162 63.85l12.162 182.274c0 3.052 0.994 7.098 3.03 12.162c1.986 5.064 3.028 8.612 3.028 10.624c0 8.116 -8.612 24.324 -25.814 48.624
c-3.004 0.994 -18.764 4.566 -47.086 10.648c-17.25 4.046 -51.18 11.12 -101.778 21.272c-69.908 13.13 -104.832 69.35 -104.832 168.62c0 147.872 60.786 270.922 182.322 369.162c5.016 -27.352 13.652 -63.79 25.79 -109.372c9.134 -2.06 28.892 -6.602 59.248 -13.678
c6.106 -2.034 36.982 -13.178 92.694 -33.432c-28.396 17.224 -65.33 45.05 -110.914 83.56c-17.224 20.254 -25.838 54.16 -25.838 101.754c0 11.144 19.262 24.324 57.758 39.538c34.404 14.174 60.266 22.24 77.48 24.3c54.68 7.05 96.714 10.648 126.102 10.648
c126.574 0 228.838 -32.44 306.814 -97.26c-25.294 -29.388 -68.854 -60.738 -130.622 -94.16c24.324 -1.016 59.768 8.566 106.346 28.868c46.564 20.23 66.322 30.38 59.248 30.38c8.092 0 24.324 -16.232 48.624 -48.624c18.218 -24.3 32.888 -46.116 44.056 -65.304
c32.392 -57.758 54.16 -120.022 65.33 -186.864c0 -23.332 0.496 -40.036 1.514 -50.138v-12.164zM423.158 437.382c0 43.536 -18.994 84.82 -56.97 123.838c-38 38.994 -78.762 58.46 -122.298 58.46c-38.498 0 -72.404 -16.328 -101.78 -48.926
c-29.386 -32.622 -44.056 -68.83 -44.056 -108.576c0 -34.632 16.704 -57.09 50.138 -67.266c21.272 -6.13 51.108 -9.702 89.616 -10.696h83.56c67.812 -1.018 101.79 16.704 101.79 53.166zM588.728 248.98v47.11c-7.074 13.154 -14.174 26.83 -21.248 41.028
c-6.08 20.278 -17.226 48.624 -33.434 85.098l-16.728 -177.756c0 -14.196 -3.028 -21.27 -9.11 -21.27c-4.046 0 -7.074 0.992 -9.11 3.004c-7.098 107.362 -10.646 153.952 -10.646 139.802v53.144c-2.036 3.076 -4.544 4.59 -7.572 4.59
c-34.45 -35.492 -51.652 -92.694 -51.652 -171.674c0 -43.56 3.998 -70.392 12.138 -80.532c8.116 2.012 17.226 5.562 27.352 10.624c4.046 2.036 15.688 3.054 34.972 3.054c19.188 0 42.518 -6.082 69.848 -18.22c10.126 0 15.19 27.328 15.19 81.998zM932.076 460.664
c0 40.788 -15.19 77.226 -45.572 109.326c-30.404 32.076 -65.352 48.152 -104.806 48.152c-42.544 0 -82.312 -19.466 -119.272 -58.46c-36.982 -38.994 -55.456 -79.756 -55.456 -122.3c0 -35.468 17.202 -53.166 51.654 -53.166h174.702
c65.812 0.994 98.75 26.48 98.75 76.448z" />
    <glyph glyph-name="r" unicode="&#xe603;" 
d="M987.436 246.214c-44.57 -106.316 -133.134 -159.462 -265.732 -159.462c-24.3 0 -50.654 -3.03 -78.986 -9.09c-42.518 -9.114 -63.776 -21.808 -63.776 -38.008c0 -5.058 3.52 -10.856 10.63 -17.454c7.062 -6.596 13.17 -9.854 18.216 -9.854
c-25.326 0 -8.112 -0.762 51.608 -2.278c59.742 -1.514 97.202 -2.278 112.4 -2.278c-88.076 -51.608 -235.396 -75.384 -441.908 -71.352c-67.856 1.002 -126.05 30.874 -174.638 89.592c-47.624 55.7 -71.388 117.96 -71.388 186.794c0 72.866 24.54 134.9 73.678 186.042
c49.066 51.084 110.098 76.672 182.976 76.672c16.188 0 37.698 -3.544 64.54 -10.63c26.818 -7.086 44.808 -10.628 53.898 -10.628c37.446 0 84.044 15.424 139.732 46.322c55.662 30.874 82.016 46.322 78.986 46.322
c-10.14 -106.316 -45.572 -177.702 -106.342 -214.112c-43.518 -25.326 -65.29 -50.116 -65.29 -74.392c0 -15.188 9.114 -27.356 27.33 -36.47c14.174 -7.098 29.848 -10.642 47.064 -10.642c26.328 0 52.144 16.178 77.47 48.566
c25.278 32.426 36.444 61.76 33.414 88.112c-3.03 30.362 -1.002 66.842 6.086 109.324c2.004 12.168 9.34 27.08 21.998 44.784c12.656 17.726 24.05 28.606 34.178 32.662c0 -9.09 -3.282 -24.3 -9.878 -45.546c-6.598 -21.248 -9.854 -36.982 -9.854 -47.086
c0 -22.274 6.06 -39.476 18.216 -51.608c18.194 7.062 34.394 29.848 48.602 68.344c12.12 29.336 19.194 57.692 21.246 85.022c-42.54 2.028 -83.292 21.248 -122.254 57.716c-38.986 36.47 -58.456 75.932 -58.456 118.438c0 7.086 0.978 14.172 3.054 21.27
c6.06 -9.114 15.164 -23.298 27.308 -42.516c17.214 -25.304 30.384 -37.962 39.522 -37.962c12.12 0 18.192 12.658 18.192 37.962c0 32.388 -8.624 61.746 -25.814 88.076c-19.244 31.386 -44.056 47.086 -74.418 47.086c-14.184 0 -35.442 -7.6 -63.752 -22.786
c-28.38 -15.162 -54.196 -22.786 -77.446 -22.786c-7.11 0 -38.522 9.138 -94.186 27.356c98.182 16.164 147.308 30.85 147.308 44.032c0 34.416 -67.342 57.714 -201.968 69.848c-13.182 1.002 -37.472 3.03 -72.902 6.084c4.032 5.058 32.902 10.628 86.584 16.7
c45.548 5.036 77.448 7.6 95.652 7.6c240.942 0 393.822 -116.97 458.61 -350.826c11.144 9.222 16.726 24.646 16.726 46.18c0 27.724 -8.112 62.63 -24.3 104.706c-6.108 16.402 -15.724 41.05 -28.87 73.88c82.994 -105.78 124.534 -206.024 124.534 -300.614
c0 -49.842 -11.68 -95.116 -34.954 -135.772c-15.152 -27.474 -43.544 -62.558 -85.024 -105.29c-41.514 -42.708 -69.87 -75.778 -85.07 -99.172c55.688 15.162 92.158 26.818 109.372 34.93c38.448 17.178 73.366 43.018 104.778 77.448
c0 -13.194 -5.572 -32.95 -16.702 -59.256zM325.318 842.994c0 -18.192 -10.14 -29.848 -30.36 -34.906l-39.5 -6.084c-14.184 -7.086 -34.93 -34.93 -62.26 -83.508c-3.054 15.164 -7.6 36.422 -13.672 63.776c-9.114 -1.026 -24.276 -9.114 -45.548 -24.3
c-9.114 -7.086 -23.81 -17.704 -44.056 -31.876c6.108 36.444 26.33 73.344 60.77 110.862c36.446 41.48 71.876 62.236 106.294 62.236c45.546 0 68.332 -18.752 68.332 -56.2zM589.56 703.31c0 -17.214 -9.366 -31.66 -28.096 -43.292
c-18.728 -11.656 -37.208 -17.478 -55.424 -17.478c-24.3 0 -46.084 13.672 -65.29 41.014c-23.324 33.416 -47.088 55.176 -71.388 65.34c5.058 5.034 11.142 7.574 18.24 7.574c9.114 0 24.516 -7.086 46.3 -21.246c21.76 -14.184 35.67 -21.27 41.778 -21.27
c5.058 0 13.396 7.086 25.052 21.27c11.63 14.172 24.538 21.246 38.722 21.246c33.404 -0.012 50.106 -17.738 50.106 -53.158z" />
    <glyph glyph-name="g" unicode="&#xe604;" 
d="M1015.34 385.372c0 -19.232 -7.438 -36.48 -22.322 -51.86c-14.862 -15.356 -31.936 -23.036 -51.144 -23.036c-30.692 0 -53.3 14.412 -67.666 43.214l-67.69 2.882c-14.434 0 -42.762 -6.262 -84.984 -18.736c-45.126 -12.474 -71.068 -22.564 -77.778 -30.242
c-10.56 -11.506 -19.184 -38.416 -25.918 -80.66c-5.788 -34.566 -8.624 -60.01 -8.624 -76.336c0 -25.896 4.058 -44.884 12.234 -56.886c8.174 -12.002 24.972 -22.092 50.394 -30.242c25.422 -8.152 41.056 -12.728 46.822 -13.686c3.828 0 10.064 0.472 18.734 1.442
h17.272c12.452 0 25.422 -1.96 38.888 -5.766c19.208 -5.764 27.384 -13.442 24.5 -23.058c-13.466 1.914 -36.974 -0.968 -70.57 -8.648l40.306 -20.152c0 -11.53 -16.326 -17.272 -48.954 -17.272c-8.67 0 -20.418 1.914 -35.314 5.742
c-14.886 3.874 -24.732 5.764 -29.504 5.764h-18.736c-0.946 -9.592 -3.85 -23.98 -8.648 -43.188c-16.348 0.968 -35.51 10.584 -57.6 28.8c-22.114 18.216 -36.006 27.36 -41.748 27.36c-5.788 0 -13.962 -9.144 -24.5 -27.36
c-10.584 -18.216 -15.854 -30.714 -15.854 -37.448c-12.474 6.734 -23.012 19.232 -31.706 37.448c-3.828 12.498 -8.15 24.972 -12.924 37.448c-9.592 -0.97 -27.382 -21.146 -53.278 -60.508h-7.228c-1.914 2.906 -9.166 23.06 -21.596 60.508
c-29.768 9.592 -57.6 14.388 -83.542 14.388c-12.474 0 -31.682 -2.882 -57.6 -8.624l-40.308 2.86c5.742 5.764 22.54 16.798 50.396 33.124c32.628 19.208 57.6 28.824 74.894 28.824c2.838 0 6.664 -0.496 11.53 -1.442c4.774 -0.992 8.648 -1.442 11.53 -1.442
c6.664 0 17.502 3.598 32.386 10.816c14.884 7.182 23.508 13.674 25.896 19.416c2.432 5.81 3.642 20.672 3.642 44.676c0 54.718 -14.412 95.522 -43.236 122.408c-24.994 24.004 -66.248 41.276 -123.872 51.86c-15.356 -54.72 -58.57 -82.124 -129.59 -82.124
c-23.06 0 -46.096 13.916 -69.132 41.77c-23.012 27.856 -34.542 53.3 -34.542 76.336c0 35.534 14.84 64.808 44.608 87.89c-23.982 24.926 -35.984 50.372 -35.984 76.29c0 24.028 7.414 45.126 22.322 63.412c14.884 18.194 34.322 28.778 58.328 31.684
c-1.914 30.69 8.15 51.836 30.24 63.364c-10.56 10.538 -15.83 29.252 -15.83 56.138c0 31.682 10.562 58.096 31.684 79.218c21.098 21.122 47.512 31.706 79.196 31.706c34.588 0 62.916 -12.048 84.984 -36.028c27.854 95.048 87.866 142.584 180.008 142.584
c48.01 0 90.254 -19.208 126.756 -57.624c13.442 -14.388 20.154 -22.09 20.154 -23.012c-11.53 0 -5.742 2.166 17.294 6.468c23.012 4.322 39.81 6.49 50.418 6.49c37.424 0 70.548 -13.916 99.372 -41.772c24.95 -24.972 42.244 -56.632 51.86 -95.048
c6.686 -0.968 17.27 -3.828 31.682 -8.624c21.1 -10.608 31.684 -28.8 31.684 -54.742c0 -4.82 -3.874 -13.938 -11.53 -27.36c61.428 -34.564 92.166 -82.574 92.166 -144.026c0 -17.27 -6.71 -41.32 -20.154 -72.024c24.974 -14.376 37.426 -35.522 37.426 -63.354z
M421.954 322.006v18.712c0 22.068 -10.79 42.244 -32.386 60.484c-21.618 18.24 -43.466 27.36 -65.532 27.36c-26.91 0 -51.838 -6.238 -74.896 -18.69c50.88 2.86 108.504 -26.436 172.814 -87.866zM396.06 500.586c-14.412 16.348 -26.886 33.148 -37.47 50.418
c-40.33 -10.56 -60.484 -22.562 -60.484 -35.984c11.53 0.924 28.328 -1.21 50.394 -6.502c22.068 -5.292 37.944 -7.932 47.56 -7.932zM483.926 545.24v63.366c-23.06 3.828 -37.022 5.764 -41.772 5.764v-21.594zM671.142 585.57
c-11.53 4.796 -33.148 14.412 -64.808 28.8v-123.85c45.104 25.942 66.698 57.624 64.808 95.05zM750.314 415.614l-31.66 38.888c-19.186 -13.454 -38.646 -27.14 -58.35 -41.056s-36.734 -29.55 -51.1 -46.81c43.202 23.082 90.264 39.362 141.11 48.978z" />
    <glyph glyph-name="0" unicode="&#xe605;" 
d="M166.402 416.928c0 125.274 26.382 240.808 79.246 346.526c65.498 131.022 155.176 196.546 268.956 196.546c112.604 0 200.528 -55.796 263.748 -167.222c52.826 -91.982 79.246 -198.876 79.246 -320.656c0 -126.478 -26.42 -240.822 -79.246 -343.082
c-64.398 -128.744 -154.05 -193.04 -268.944 -193.04c-109.198 0 -195.906 55.13 -260.304 165.454c-55.144 94.222 -82.702 199.376 -82.702 315.474zM311.16 473.812c0 -165.456 24.704 -294.2 74.176 -386.156c34.446 -64.32 78.67 -96.526 132.7 -96.526
c129.87 0 194.83 134.478 194.83 403.436c0 118.324 -10.354 218.358 -31.002 299.958c-35.648 134.454 -95.976 201.732 -181.058 201.732c-126.452 0 -189.646 -129.922 -189.646 -389.676z" />
    <glyph glyph-name="1" unicode="&#xe606;" 
d="M584.76 959.988v-820.572c0 -98.188 41.292 -147.25 123.992 -147.25h21.556v-56.166h-436.616v56.166h27.404c79.962 0 119.922 49.062 119.922 147.25v538.284c0 99.3 -34.52 149.028 -103.434 149.028h-43.892v54.36h15.834c85.246 0 162.442 26.33 231.42 78.912z
" />
    <glyph glyph-name="2" unicode="&#xe607;" 
d="M862.39 190.694l-75.47 -254.694h-627.084v54.452c30.464 33.944 97.216 102.412 200.27 205.478c62.066 62.106 123.506 127.642 184.408 196.748c30.44 33.934 53.888 63.258 70.234 87.834c36.302 52.66 54.464 106.496 54.464 161.588
c0 53.81 -16.652 101.272 -50.022 142.232c-33.37 41.012 -76.416 61.544 -129.152 61.544c-113.548 0 -202.534 -76.776 -266.932 -230.144l-56.256 21.08c76.122 215.412 196.11 323.188 360.078 323.188c80.806 0 149.592 -27.508 206.386 -82.534
c56.82 -55.04 85.198 -122.932 85.198 -203.776c0 -103.066 -59.098 -203.75 -177.384 -302.094l-122.93 -101.836c-78.476 -65.626 -143.514 -127.092 -194.958 -184.474c-3.582 -3.494 -10.572 -11.724 -21.08 -24.588h326.668c50.33 0 88.41 9.932 114.15 29.888
c22.208 17.562 43.956 50.944 65.024 100.108z" />
    <glyph glyph-name="3" unicode="&#xe608;" 
d="M378.38 415.194l-25.83 48.268l17.114 10.33c66.228 40.256 126.758 81.024 181.62 122.406c54.834 41.37 82.264 88.512 82.264 141.414c0 35.56 -13.17 65.434 -39.488 89.576c-26.38 24.216 -57.24 36.274 -92.722 36.274
c-82.42 0 -169.396 -51.212 -261.018 -153.484l-42.932 32.754c95.4 144.846 212.046 217.268 349.966 217.268c60.89 0 112.576 -14.95 155.162 -44.838c48.268 -33.37 72.384 -78.758 72.384 -136.218c0 -41.332 -17.268 -81.588 -51.7 -120.652
c-19.558 -23.016 -54.092 -52.89 -103.462 -89.652l-20.686 -15.526c9.192 1.138 20.122 1.714 32.768 1.714c63.194 0 115.176 -24.152 156.008 -72.408c40.806 -48.27 61.222 -104.576 61.222 -168.91c0 -109.21 -46.016 -200.538 -137.908 -274.124
c-85.082 -68.954 -183.36 -103.386 -294.81 -103.386c-102.284 0 -182.732 22.374 -241.382 67.188l31.092 43.148c68.954 -33.382 131.57 -50.01 187.916 -50.01c81.574 0 154.254 26.996 218.01 81.024c63.846 54.016 95.68 121.204 95.68 201.664
c0 52.89 -16.064 97.984 -48.256 135.374c-32.204 37.312 -74.15 55.986 -125.85 55.986c-47.154 -0.026 -98.854 -18.394 -155.162 -55.18z" />
    <glyph glyph-name="4" unicode="&#xe609;" 
d="M716.752 225.818v-86.054c0 -98.356 34.496 -147.52 103.602 -147.52h29.824v-56.244h-418.022v56.244h33.37c67.878 0 101.9 48.614 101.9 145.816v87.758h-419.776v87.82l442.598 646.362h126.504v-660.378h10.496c43.302 0 74.904 33.382 94.822 100.046h52.672
l-24.576 -173.864zM567.426 299.622v530.662l-357.03 -530.662z" />
    <glyph glyph-name="5" unicode="&#xe60a;" 
d="M319.456 942.694h370.444c48.052 0 76.648 5.76 85.8 17.306h53.196l-31.002 -139.84h-452.018l-43.624 -202.1c65.626 26.496 123.752 39.732 174.4 39.732c98.932 0 182.4 -33.114 250.356 -99.302c67.904 -66.19 101.9 -148.762 101.9 -247.77
c0 -115.148 -44.352 -207.834 -133.042 -278.042c-81.728 -64.498 -181.274 -96.678 -298.726 -96.678c-69.056 0 -136.448 10.342 -202.048 31.052l20.696 51.79c55.296 -14.964 104.206 -22.414 146.804 -22.414c85.172 0 159.706 27.904 223.654 83.764
c63.872 55.782 95.846 125.772 95.846 209.818c0 72.512 -23.602 132.096 -70.822 178.674c-47.218 46.67 -107.072 69.992 -179.622 69.992c-66.726 0 -128.896 -23.04 -186.47 -69.07l-34.574 6.886z" />
    <glyph glyph-name="6" unicode="&#xe60b;" 
d="M340.222 516.158c75.954 71.384 152.444 107.056 229.614 107.056c84.016 0 151.394 -33.356 202.068 -100.106c47.128 -61.054 70.77 -134.664 70.77 -221.05c0 -94.41 -27.622 -177.262 -82.878 -248.634c-61.03 -78.256 -136.996 -117.424 -227.924 -117.424
c-109.4 0 -196.872 47.23 -262.446 141.602c-58.75 82.904 -88.1 181.334 -88.1 295.302c0 120.83 33.37 232.2 100.146 334.084c66.724 101.86 155.95 174.102 267.59 216.674c63.32 24.166 130.146 36.338 200.314 36.338v-53.554
c-149.64 -8.076 -261.292 -67.94 -335.018 -179.592c-37.862 -57.612 -62.654 -127.78 -74.136 -210.696zM329.828 412.584c-1.1 -20.71 -1.702 -41.446 -1.702 -62.168c0 -79.398 13.798 -153.084 41.42 -221.038c35.648 -88.6 88.1 -132.926 157.168 -132.926
c59.824 0 104.7 30.476 134.652 91.532c23 47.154 34.52 104.124 34.52 170.94c0 71.306 -10.968 132.374 -32.806 183.022c-29.95 69.066 -75.978 103.574 -138.146 103.574c-75.94 0.014 -141.014 -44.338 -195.106 -132.936z" />
    <glyph glyph-name="7" unicode="&#xe60c;" 
d="M557.61 -64h-149.032v15.846c0 94.67 29.798 213.238 89.344 355.948c90.05 215.03 173.058 379.818 249.002 494.392l10.522 15.77h-348.882c-50.304 0 -88.576 -10.482 -114.88 -31.526c-26.356 -21.056 -45.852 -56.154 -58.702 -105.244h-57.858l63.054 278.814
h36.878c22.196 -11.7 60.698 -17.55 115.726 -17.55h455.8v-78.912c-16.32 -23.412 -37.35 -60.8 -63.052 -112.232c-49.128 -95.81 -94.108 -207.464 -135.08 -334.89c-60.712 -188.188 -91.688 -348.28 -92.84 -480.416z" />
    <glyph glyph-name="8" unicode="&#xe60d;" 
d="M393.258 454.874l-22.804 15.5c-66.858 44.826 -110.912 81.024 -132.006 108.66c-26.984 34.444 -40.436 74.624 -40.436 120.652c0 78.144 33.396 141.914 100.28 191.348c62.144 45.952 134.278 68.966 216.392 68.966c77.346 0 146.02 -20.134 205.786 -60.326
c67.954 -44.838 102.044 -104.026 102.044 -177.614c0 -89.65 -63.972 -162.048 -191.758 -217.176c145.378 -68.968 218.102 -164.916 218.102 -287.898c0 -88.5 -34.56 -158.58 -103.822 -210.356c-62.076 -47.13 -140.128 -70.63 -233.904 -70.63
c-87.952 0 -163.586 21.798 -226.958 65.524c-72.722 49.356 -109.032 114.892 -109.032 196.466s38.7 148.864 116.098 201.742c21.106 13.746 55.156 32.128 102.018 55.142zM452.972 430.4c-105.532 -47.066 -158.18 -121.164 -158.18 -222.22
c0 -65.448 21.356 -117.992 64.208 -157.62c42.8 -39.642 97.628 -59.43 164.486 -59.43c59.74 0 110.508 15.77 152.106 47.296c41.612 31.538 62.444 75.404 62.444 131.584c0 84.812 -57.036 153.612 -171.07 206.362zM570.924 532.454
c92.574 40.206 138.98 100.532 138.98 180.98c0 55.206 -19.67 99.404 -58.904 132.8c-39.34 33.318 -87.704 49.996 -145.146 49.996c-48.116 0 -89.714 -12.684 -124.9 -37.938c-38.724 -27.572 -58.028 -64.384 -58.028 -110.336
c0 -56.32 26.944 -101.736 80.912 -136.232c10.514 -6.872 57.414 -29.26 140.73 -67.2z" />
    <glyph glyph-name="9" unicode="&#xe60e;" 
d="M683.524 377.3c-75.8 -71.256 -152.292 -106.918 -229.244 -106.918c-83.904 0 -151.154 33.332 -201.7 100.018c-47.156 60.902 -70.694 134.488 -70.694 220.684c0 93.08 27.544 176.342 82.7 249.928c59.8 79.346 135.102 118.988 225.892 118.988
c110.36 0 198.256 -47.718 263.74 -143.116c58.648 -83.89 87.896 -183.28 87.896 -298.26c0 -163.148 -54.066 -300.772 -161.982 -412.886c-108.044 -112.024 -243.108 -168.624 -405.154 -169.738v53.44c49.396 2.252 88.998 8.012 119.002 17.202
c165.398 50.572 262 174.09 289.544 370.658zM693.93 480.748c1.102 21.836 1.652 42.522 1.652 62.028c0 80.448 -13.748 154.034 -41.344 220.67c-36.8 88.524 -89.598 132.786 -158.538 132.786c-59.852 0 -104 -30.528 -132.798 -91.404
c-23.002 -47.142 -34.446 -104.012 -34.446 -170.674c0 -71.244 10.906 -132.146 32.756 -182.718c29.848 -68.952 75.852 -103.46 137.944 -103.46c75.774 0 140.67 44.262 194.774 132.772z" />
    <glyph glyph-name="10" unicode="&#xe60f;" 
d="M264.254 889.098v-709.298c0 -84.346 36.098 -126.534 108.182 -126.534h18.352v-48.094h-377.802v48.094h24.286c69.342 0 104.062 42.188 104.062 126.534v465.188c0 85.5 -30.306 128.292 -90.942 128.292h-37.406v48.15h14.286c73.66 0 140.19 22.556 199.562 67.682
zM401.504 420.424c0 110.488 23.146 212.09 69.468 304.706c58.248 115.214 137.884 172.87 238.81 172.87c97.468 0 174.684 -49.332 231.694 -147.882c46.35 -80.83 69.538 -174.108 69.538 -279.814c0 -110.518 -23.174 -211.486 -69.538 -302.978
c-58.234 -112.908 -137.208 -169.326 -236.996 -169.326c-96.216 0 -172.87 48.726 -229.95 146.18c-48.712 81.956 -73.026 174.038 -73.026 276.244zM529.782 472.118c0 -93.938 10.096 -178.258 30.318 -253.07c30.896 -115.242 81.352 -172.898 151.468 -172.898
c114.06 0 171.07 118.786 171.07 356.428c0 293.47 -61.79 440.17 -185.372 440.17c-111.67 0 -167.512 -113.976 -167.512 -342.112z" />
    <glyph glyph-name="11" unicode="&#xe610;" 
d="M358.53 898.36v-722.748c0 -85.992 35.766 -128.94 107.132 -128.94h18.182v-49.032h-384.986v49.032h25.418c72.63 0 108.994 42.948 108.994 128.94v473.966c0 87.186 -30.89 130.716 -92.66 130.716h-38.142v49.032h14.558c75.06 0 142.83 22.988 203.348 69.018z
M819.828 898.36v-722.748c0 -85.992 35.696 -128.94 107.146 -128.94h18.168v-49.032h-385.058v49.032h25.42c72.714 0 108.994 42.948 108.994 128.94v473.966c0 87.186 -30.892 130.716 -92.59 130.716h-38.126v49.032h14.486c75.06 0 142.828 22.988 203.432 69.018z" />
    <glyph glyph-name="12" unicode="&#xe611;" 
d="M268.362 898v-718.89c0 -85.876 35.492 -128.868 106.372 -128.868h18.682v-50.356h-382.76v50.356h22.408c72.182 0 108.258 42.992 108.258 128.868v472.438c0 87.048 -29.864 130.666 -89.576 130.666h-39.204v48.56h14.894c74.682 0 141.922 22.38 201.65 67.212z
M1013.34 220.23l-65.354 -222.23h-547.12v48.53c26.21 29.864 84.036 89.65 173.686 179.298c53.486 53.5 107.058 110.772 160.616 171.726c26.136 29.952 46.646 54.788 61.614 74.77c31.076 47.244 46.644 94.502 46.644 141.834c0 47.33 -14.34 89.05 -42.946 125.14
c-28.636 36.12 -66.642 54.158 -113.886 54.158c-98.39 0 -175.584 -67.212 -231.584 -201.708l-48.546 18.696c67.256 186.74 171.786 280.13 313.708 280.13c69.68 0 129.466 -23.694 179.24 -70.968c49.758 -47.332 74.68 -106.43 74.68 -177.412
c0 -90.848 -51.658 -179.24 -154.916 -265.176l-106.446 -85.85c-68.526 -57.3 -125.14 -111.458 -169.972 -162.414c-3.712 -3.83 -9.954 -10.656 -18.608 -20.612h285.686c43.544 0 75.894 8.142 97.104 24.324c21.122 16.108 40.432 45.418 57.826 87.764z" />
    <glyph glyph-name="13" unicode="&#xe612;" 
d="M273.492 897.42v-722.152c0 -84.9 36.12 -127.268 108.33 -127.268h17.094v-49.42h-383.844v49.42h24.74c73.46 0 110.176 42.368 110.176 127.268v473.238c0 87.37 -31.078 131.122 -93.098 131.122h-38.054v49.33h15.234c74.694 0 141.892 22.836 201.428 68.462
h37.994zM596.566 418.53l-22.806 41.848l17.152 9.536c56.992 35.39 109.894 71.184 158.674 107.334c48.706 36.09 73.148 76.91 73.148 122.552c0 31.672 -12.066 57.988 -36.106 78.86c-24.056 20.946 -50.728 31.376 -79.798 31.376
c-73.534 0 -150.788 -44.362 -231.894 -133.072l-37.98 28.534c83.59 126.688 186.208 190.078 307.824 190.078c53.2 0 98.216 -13.316 134.93 -39.93c43.084 -29.232 64.654 -69.1 64.654 -119.77c0 -35.51 -15.234 -70.292 -45.626 -104.448
c-17.778 -19.028 -48.17 -45.002 -91.238 -77.954l-17.094 -15.218c7.588 1.22 17.094 1.918 28.534 1.918c55.758 0 101.31 -21.272 136.79 -63.626c35.496 -42.428 53.198 -90.94 53.198 -145.358c0 -96.326 -40.524 -176.138 -121.646 -239.454
c-73.46 -60.784 -158.984 -91.266 -256.47 -91.266c-90.018 0 -160.296 19.026 -210.95 57.066l26.6 37.98c59.536 -27.834 113.968 -41.848 163.374 -41.848c70.976 0 134.32 23.416 190.062 70.366c55.758 46.832 83.592 105.148 83.592 174.828
c0 46.862 -13.926 86.73 -41.76 119.682c-27.922 32.952 -64.652 49.42 -110.264 49.42c-40.494 -0.014 -85.496 -16.498 -134.9 -49.434z" />
    <glyph glyph-name="14" unicode="&#xe613;" 
d="M265.038 887.058v-705.454c0 -83.254 34.636 -124.888 103.838 -124.888h16.468v-47.776h-371.934v47.776h23.734c70.47 0 105.706 41.634 105.706 124.888v462.954c0 84.55 -29.828 126.788 -89.324 126.788h-36.49v47.746h14.598
c71.656 0 136.704 22.636 195.016 67.952zM879.366 258.776v-73.476c0 -82.074 28.486 -123.118 85.67 -123.118h23.662v-47.69h-348.186v47.69h27.372c57.126 0 85.684 40.454 85.684 121.234v75.36h-350.042v73.474l370.078 543.822h105.778v-554.808h9.118
c35.25 0 61.352 28.086 78.334 84.462h43.756l-21.878 -146.964zM782.708 332.25v462.926l-309.91 -462.926z" />
    <glyph glyph-name="15" unicode="&#xe614;" 
d="M295.15 887.742v-701.468c0 -83.406 34.716 -125.144 103.992 -125.144h17.62v-47.532h-373.61v47.532h24.656c70.492 0 105.772 41.738 105.772 125.144v460.066c0 84.566 -29.968 126.868 -89.932 126.868h-37.006v47.588h14.116
c72.864 0 138.624 22.31 197.374 66.946zM541.92 870.178h319.014c41.172 0 65.828 4.636 74.078 14.074h45.836l-26.464 -119.874h-389.492l-37.004 -172.69c55.162 22.31 104.558 33.5 148.034 33.5c84.62 0 155.982 -28.27 214.138 -84.648
c58.156 -56.348 87.2 -126.84 87.2 -211.488c0 -98.68 -37.57 -177.962 -112.726 -237.954c-70.574 -55.19 -155.788 -82.84 -255.6 -82.84c-58.75 0 -116.312 8.844 -172.69 26.464l17.564 44.028c46.968 -12.888 88.72 -19.344 125.144 -19.344
c72.866 0 136.624 24.034 191.248 72.216c54.652 48.182 81.902 108.172 81.902 179.796c0 62.254 -20.212 113.402 -60.736 153.332c-40.578 39.944 -91.354 59.936 -152.476 59.936c-57.564 0 -111.002 -19.992 -160.398 -59.936l-29.912 5.284z" />
    <glyph glyph-name="x" unicode="&#xe615;" 
d="M583.622 18v44.304c63.196 7 94.856 25.356 94.856 54.852c0 21.258 -8.454 42.516 -25.304 63.774l-174.794 215.134l-138.044 -162.742c-34.534 -39.95 -51.91 -72.992 -51.91 -98.818c0 -39.99 31.632 -64.112 95.004 -72.388v-44.116h-336.622v44.17
c42.622 8.182 78.838 23.542 108.87 45.902c20.68 16.434 48.872 45.298 84.454 86.51l207.596 240.734l-240.088 291.056c-31.108 37.584 -55.376 62.256 -72.576 74.04c-23.166 16.46 -55.376 27.036 -96.79 31.726v45.862h396.93v-44.142
c-59.836 -11.784 -89.708 -30.02 -89.708 -54.744c0 -16.528 7.982 -34.75 24.094 -54.718l158.776 -192.452l127.764 157.098c22.992 28.272 34.534 52.958 34.534 74.174c0 35.328 -28.284 58.32 -84.668 68.922v45.862h315.942v-44.222
c-27.614 -5.9 -46.668 -11.208 -56.84 -15.964c-34.536 -16.516 -87.29 -65.428 -158.524 -146.738c-11.448 -13.022 -59.836 -72.468 -144.976 -178.518l255.004 -313.94c55.268 -68.236 111.598 -107.11 169.124 -116.448v-44.17z" />
    <glyph glyph-name="y" unicode="&#xe616;" 
d="M580.986 205.544c0 -55.006 9.022 -93.696 27.076 -116.054c18.056 -22.36 48.566 -33.532 91.572 -33.532l10.318 1.31v-49.034h-397.186v49.008h12.882c42.994 -0.87 73.518 9.888 91.572 32.248c18.056 22.33 27.076 60.606 27.076 114.744v172.828l-252.758 370.11
c-10.318 13.752 -19.338 25.794 -27.09 36.112c-7.738 10.316 -15.048 18.468 -21.918 24.496c-11.186 9.462 -23.006 16.124 -35.462 20c-12.468 3.876 -28.592 7.09 -48.358 9.668v50.304h385.586v-49.006c-38.69 -3.45 -64.938 -8.828 -78.662 -16.112
c-13.766 -7.31 -20.634 -20.854 -20.634 -40.62c0 -8.606 1.71 -17.214 5.144 -25.794c3.436 -8.606 8.166 -17.626 14.194 -27.074l196.028 -283.712l143.144 210.208c13.738 18.91 23.628 35.24 29.656 49.006c6 13.738 9.862 26.636 11.6 38.676v5.16v5.172
c0 26.634 -7.31 46.428 -21.918 59.31c-14.62 12.91 -39.986 21.062 -76.082 24.496v50.304h318.524v-49.006c-10.318 -1.726 -19.792 -4.084 -28.358 -7.09c-8.608 -3.022 -16.772 -7.104 -24.51 -12.262c-13.766 -7.738 -27.946 -19.986 -42.552 -36.76
c-14.636 -16.758 -32.236 -40.206 -52.87 -70.29l-236 -335.296v-171.532h-0.014v0.014z" />
    <glyph glyph-name="z" unicode="&#xe617;" 
d="M853.74 8.236h-741.538v37.394l588.086 789.264h-261.786c-43.008 -0.87 -76.1 -5.394 -99.314 -13.532c-23.214 -8.194 -44.718 -23.862 -64.484 -47.078c-1.724 -1.738 -3.214 -3.448 -4.51 -5.158c-1.284 -1.738 -2.8 -3.448 -4.512 -5.144
c-3.448 -5.174 -6.662 -9.684 -9.682 -13.546c-3.022 -3.862 -5.794 -7.958 -8.372 -12.262c-0.87 -2.594 -2.152 -5.16 -3.864 -7.738c-1.724 -2.594 -3.448 -5.174 -5.158 -7.752c-1.738 -5.16 -3.876 -10.552 -6.442 -16.112c-2.592 -5.6 -5.614 -12.262 -9.02 -19.986
l-46.442 1.296v199.882h704.142v-34.814l-593.216 -791.83h256.628c38.69 -0.868 69.422 0 92.21 2.594c22.758 2.578 44.042 8.138 63.836 16.73c2.58 0.87 4.938 1.726 7.09 2.594c2.152 0.87 4.068 1.71 5.806 2.594c12.042 6.014 23.642 12.896 34.816 20.634
c11.158 7.738 22.344 16.76 33.532 27.076c7.738 7.752 15.476 16.112 23.214 25.132c7.738 9.036 15.904 19.146 24.51 30.304l33.532 47.74h48.996z" />
    <glyph glyph-name="p" unicode="&#xe618;" 
d="M799.996 448.758c0.606 55.84 -17.136 112.212 -51.9 155.984c-16.802 18.504 -30.616 39.57 -48.412 57.062c-39.226 38.934 -97.96 41.524 -145.21 66.048c-2.748 24.63 -11.756 49.268 -6.302 74.116c1.662 8.266 4.096 16.646 -0.302 24.544
c-12.392 28.548 -1.746 59.54 -3.95 89.31c-1.65 15.548 -0.596 34.576 -15.402 44.178c-3.448 -32.36 -15.35 -62.476 -24.994 -93.184c-4.452 -23.93 -4.452 -48.86 -14.764 -71.43c6.54 -22.864 -6.416 -42.11 -20.44 -58.996
c-30.992 -15.884 -67.876 -19.656 -94.846 -42.946c-19.236 -16.322 -39.998 -30.626 -61.524 -43.908c-16.144 -20.208 -34.022 -39.674 -41.21 -65.202c-28.862 -34.848 -32.268 -81.618 -48.63 -122.432c-0.304 -60.594 11.974 -125.838 50.678 -174.406
c27.69 -22.862 47.04 -53.614 74.69 -76.486c26.54 -15.842 54.868 -28.86 82.276 -43.124c17.868 -4.158 36.31 -6.206 54.084 -11.066c14.42 -74.282 24.262 -150.372 53.206 -220.82c9.604 28.924 8.444 59.916 16.73 89.142c11.682 43.216 -12.288 88.2 1.222 130.624
c20.25 18.108 54.022 6.352 76.488 21.89c42.758 26.364 88.002 52.036 119.014 92.37c11.546 23.186 35.798 40.512 35.798 68.326c0.2 37.46 22.048 72.538 13.7 110.406zM482.626 219.61c-30.982 7.532 -59.842 22.35 -85.83 40.448
c-27.96 18.63 -38.39 53.394 -65.974 72.454c-25.83 30.834 -20.24 72.954 -30.826 109.464c4.242 25.474 9.248 50.74 11.892 76.54c12.602 20.438 32.046 36.738 37.438 61.336c18.464 26.456 46.582 44.764 69.164 67.7c16.426 18.944 42.568 10.96 64.146 11.692
c-2.142 -20.898 -3.846 -42.506 1.39 -63.122c2.55 -12.666 8.266 -25.142 6.312 -38.412c-4.326 -28.202 6.258 -56.488 -1.224 -84.366c-15.078 -58.284 1.37 -117.124 2.8 -175.878c-2.152 -26.03 -3.364 -52.246 -9.288 -77.856zM717.49 330.056
c-20.522 -14.588 -38.004 -32.508 -55.914 -49.998c-31.128 -21.526 -61.89 -44.306 -98.942 -55.068c3.344 26.426 6.604 53.614 -1.818 79.486c-20.668 58.452 4.66 119.59 8.934 178.7c-3.772 35.142 -0.168 72.632 -16.28 105.004
c-2.11 24.314 8.402 47.794 15.528 70.678c24.472 -9.77 47.512 -22.958 67.878 -39.916c24.596 -18.432 62.276 -30.386 67.782 -64.764c2.812 -22.58 27.524 -36.238 26.802 -59.34c-1.546 -54.92 6.03 -112.358 -13.97 -164.782z" />
    <glyph glyph-name="s" unicode="&#xe619;" 
d="M512 947.764l100.226 -141.132l24.078 41.702l44.35 0.522l86.946 41.848l7.228 -96.228l21.736 -38.668l-24.068 -41.714l172.316 -16.216l-72.12 -157.356h48.164l22.626 -38.146l79.716 -54.382l-79.716 -54.37l-22.626 -38.156h-48.164l72.13 -157.336
l-172.326 -16.236l24.068 -41.694l-21.726 -38.708l-7.228 -96.228l-86.956 41.868l-44.35 0.52l-24.078 41.714l-100.216 -141.132l-100.226 141.132l-24.076 -41.714l-44.352 -0.53l-86.946 -41.858l-7.238 96.248l-21.726 38.688l24.078 41.694l-172.326 16.214
l72.12 157.358h-48.164l-22.636 38.156l-79.716 54.37l79.726 54.372l22.626 38.156h48.164l-72.13 157.346l172.336 16.226l-24.078 41.714l21.726 38.668l7.228 96.228l86.956 -41.848l44.352 -0.522l24.076 -41.702zM512.002 291.384l-72.09 -125.642l72.09 -125.642
l72.078 125.642zM321.752 818.942l-35.856 -20.704v-41.366l35.846 -20.694l138.248 -258.154l-292.692 -9.334l-35.854 20.682l-35.816 -20.672v-41.388l35.816 -20.692l35.854 20.692l292.692 -9.354l-138.258 -258.156l-35.836 -20.682l-0.01 -41.376l35.846 -20.684
l35.834 20.684v41.376l154.434 248.81l154.434 -248.81v-41.388l35.824 -20.682l35.856 20.694v41.366l-35.856 20.692l-138.238 258.156l292.702 9.354l35.844 -20.702l35.826 20.682v41.398l-35.826 20.682l-35.844 -20.682l-292.702 9.334l138.258 258.154l35.846 20.694
v41.366l-35.846 20.694l-35.824 -20.684l-0.02 -41.376l-154.424 -248.81l-154.432 248.81l-0.012 41.386zM647.652 369.68l72.754 -125.244l144.844 -0.378l-72.764 125.222zM376.36 369.69l-144.844 -0.39l-72.764 -125.242l144.844 0.398zM865.25 651.932
l-144.834 -0.398l-72.764 -125.234l144.854 0.388zM158.762 651.942l72.764 -125.232l144.844 -0.4l-72.764 125.244zM512.012 855.89l-72.08 -125.642l72.08 -125.632l72.078 125.632z" />
    <glyph glyph-name="tap" unicode="&#xe61a;" 
d="M872.418 440.722h-411.958l150.862 107.362c-56.042 44.474 -120.896 66.684 -194.33 66.684c-36.74 0 -61.948 -7.014 -75.404 -21.008c-13.546 -14.04 -20.332 -39.418 -20.332 -76.136c0 -101.524 52.21 -209.846 156.652 -324.906l-118.894 -120.382
c-138.334 168.254 -207.432 318.592 -207.432 451.09c0 79.27 23.868 142.418 71.742 189.308c47.828 46.89 111.514 70.346 190.716 70.346c96.718 0 202.11 -36.786 316.268 -110.244l88.424 150.828z" />
    <glyph glyph-name="untap" unicode="&#xe61b;" 
d="M504.722 808.418v-411.958l107.362 150.862c44.474 -56.042 66.684 -120.896 66.684 -194.33c0 -36.742 -7.014 -61.948 -21.008 -75.404c-14.04 -13.546 -39.418 -20.332 -76.136 -20.332c-101.524 0 -209.846 52.21 -324.906 156.652l-120.382 -118.894
c168.254 -138.334 318.592 -207.432 451.09 -207.432c79.27 0 142.418 23.868 189.308 71.742c46.89 47.828 70.346 111.514 70.346 190.716c0 96.718 -36.786 202.11 -110.244 316.268l150.828 88.424z" />
    <glyph glyph-name="tap-alt" unicode="&#xe61c;" 
d="M990.978 358.726l-117.63 -141.656l-28.824 28.8c11.208 28.278 18.308 54.296 21.222 78.056c2.916 23.738 1.714 45.728 -3.604 66.038c-0.536 2.648 -1.18 5.198 -2.004 7.59c-0.79 2.436 -1.724 4.696 -2.804 6.822c-4.262 12.776 -10.672 24.806 -19.22 35.99
c-8.536 11.24 -20.788 24.816 -36.792 40.82l-84.042 85.634l-390.55 -390.57c-34.154 -34.122 -52.572 -63.756 -55.232 -88.796c-2.682 -25.106 9.604 -51.248 36.826 -78.468l11.206 -9.582l-30.414 -30.404l-256.094 256.092l30.404 30.404l12.798 -12.776
c26.676 -27.754 52.55 -40.318 77.634 -37.626c25.072 2.65 54.43 20.822 88.038 54.43l391.34 391.352l-87.226 87.226c-24.54 23.47 -45.484 39.886 -62.822 49.21c-17.35 9.35 -37.504 13.222 -60.418 11.608c-3.216 0 -6.566 -0.134 -10.016 -0.39
c-3.472 -0.278 -7.078 -0.678 -10.806 -1.19c-6.944 -0.546 -13.076 -1.324 -18.396 -2.416c-5.34 -1.068 -10.416 -1.846 -15.212 -2.392c-1.614 -0.544 -3.072 -0.934 -4.396 -1.19c-1.336 -0.256 -3.072 -0.412 -5.208 -0.39c-5.876 -1.614 -12.554 -3.484 -20.01 -5.608
c-7.488 -2.104 -16.814 -4.542 -28.022 -7.19l-26.408 28.022l138.44 120.824z" />
    <glyph glyph-name="chaos" unicode="&#xe61d;" 
d="M649.526 874c-313.264 -14.314 36.234 -281.108 -140.444 -421.74c0 -0.018 -0.026 -0.034 -0.042 -0.034c-0.01 0.034 -0.034 0.068 -0.06 0.086c-0.87 -0.35 -1.636 -0.75 -2.496 -1.1c-123.746 -50.09 -261.522 150.932 -265.536 -60.288
c65.35 98.032 95.144 2.326 202.564 8.324c-52.168 -68.926 -26.592 -184.576 -113.572 -203.398c-158.898 -34.36 -275.17 158.804 -265.482 280.044c21.512 269.25 232.51 391.656 442.026 379.038c-277.326 55.534 -512.42 -173.032 -505.536 -410.128
c7.908 -271.872 152.142 -404.93 373.526 -422.804c313.264 14.296 -36.236 281.126 140.444 421.74c0.016 0.018 0.026 0.034 0.042 0.034c0.026 -0.034 0.034 -0.068 0.06 -0.086c0.87 0.35 1.636 0.75 2.506 1.1c123.734 50.09 261.528 -150.932 265.524 60.288
c-65.34 -98.032 -95.142 -2.326 -202.562 -8.324c52.168 68.926 26.608 184.576 113.58 203.38c158.906 34.362 275.162 -158.786 265.474 -280.026c-21.496 -269.266 -232.502 -391.656 -442.016 -379.038c277.326 -55.534 512.418 173.032 505.524 410.144
c-7.898 271.856 -152.15 404.896 -373.524 422.788z" />
    <glyph glyph-name="artifact" unicode="&#xe61e;" 
d="M255.74 898h512.49c13.11 -4.11 26.55 -11.01 30.96 -25.08c4.29 -22.68 -4.41 -45.18 -2.13 -67.95c2.07 -19.71 -6.15 -39.09 -2.16 -58.68c7.74 -11.37 21.9 -16.53 28.65 -28.68c2.58 -4.14 4.53 -8.67 6.45 -13.2v-26.94c-4.5 -11.07 -10.95 -21.57 -20.28 -29.22
c-8.34 -7.47 -19.86 -13.02 -23.31 -24.51c-18.6 -73.74 -41.16 -147.12 -76.2 -214.89c-8.16 -17.1 -24.63 -27.66 -38.76 -39.36c-20.52 -16.83 -44.7 -28.2 -68.55 -39.39c-14.61 -6.78 -31.77 -11.16 -42.21 -24.24c-1.86 -9.84 0 -19.86 1.44 -29.64
c2.76 -32.46 5.73 -64.89 8.07 -97.41c3.27 -17.46 -0.3 -36 7.02 -52.71c11.25 -27.24 36.87 -44.43 61.86 -57.9c23.22 -10.47 47.97 -20.01 73.89 -19.17c19.56 0.84 39.81 -2.37 57.18 -11.79c10.29 -5.13 12 -20.34 3.63 -28.05c-8.61 -6.69 -19.74 -8.43 -30 -11.19
h-463.65c-10.23 2.76 -21.33 4.53 -29.91 11.19c-7.71 7.2 -7.05 20.91 1.77 26.91c20.34 12.36 44.91 13.68 68.1 13.02c35.49 3.3 69.6 18.33 97.65 40.14c13.65 10.62 25.05 24.78 30.63 41.28c5.4 15.6 2.28 32.31 5.46 48.27c3.03 37.8 5.55 75.63 10.08 113.28
c0.24 6.63 1.38 14.67 -5.13 18.78c-16.53 12.99 -37.77 17.61 -55.89 27.93c-27.09 12.3 -51.33 29.88 -73.35 49.74c-12.93 12.15 -19.89 28.83 -27.66 44.37c-28.14 61.11 -48.6 125.49 -64.44 190.77c-3.69 13.02 -17.52 18.45 -26.34 27.39
c-8.43 6.84 -13.77 16.41 -17.1 26.61v26.76c3.27 16.47 17.52 25.2 29.28 35.28c10.2 7.32 6.6 21.18 6.03 31.86c-4.47 19.77 -0.9 40.05 -3.06 60c-2.25 13.62 -3.9 27.69 -1.5 41.4c5.34 13.02 18.09 20.94 30.99 25.02z" />
    <glyph glyph-name="creature" unicode="&#xe61f;" 
d="M753.184 901.666h46.59c-46.448 -40.838 -102.966 -52.808 -153.838 -80.436c-68 -29.87 -119.688 -84.514 -177.696 -129.066c-54.644 -43.532 -115.812 -79.926 -161.076 -134.162c-44.96 -53.422 -94.404 -105.72 -121.42 -171.17
c11.316 -25.284 21.002 -51.28 29.36 -77.684c156.796 143.032 315.63 292.284 514.02 375.88c95.934 38.332 189.52 89.918 294.324 98.89c-20.39 -35.07 -53.218 -48.936 -83.088 -64.534c-126.212 -60.454 -247.936 -134.366 -346.214 -235.192
c-93.384 -103.784 -208.992 -184.22 -306.862 -283.516c-40.474 -40.984 -71.67 -90.734 -115.608 -128.25c-28.24 -24.57 -67.694 11.52 -60.66 43.326c4.282 49.752 26.914 107.556 -7.748 151.698c-29.768 23.958 -73.174 30.782 -99.296 56.072
c0 0 -2.74 11.556 -3.354 20.152c-0.614 8.598 3.354 24.298 3.354 24.298c16.296 74.262 75.95 128.758 124.07 185.034c52.808 59.538 108.37 118.566 176.064 161.484c47.812 25.284 101.436 37.926 148.434 65.044c94.914 52.4 189 101.324 300.644 122.132z
M701.19 367.87c101.438 59.842 205.528 121.622 322.258 145.274c-46.692 -55.662 -103.886 -76.868 -153.942 -109.696c-53.318 -34.56 -105.516 -70.75 -158.222 -106.126c-72.994 -47.814 -133.552 -111.532 -191.662 -175.962
c-38.638 -41.9 -64.634 -96.34 -114.284 -127.026h-38.23c-27.73 17.738 -47.1 49.546 -35.274 82.984c15.19 71.772 89.102 100.52 141.402 140.994c71.262 56.582 146.804 108.064 227.954 149.558z" />
    <glyph glyph-name="enchantment" unicode="&#xe620;" 
d="M506.834 868.65h9.412c3.682 -10.18 6.496 -20.716 7.826 -31.51c13.248 -127.726 26.854 -255.506 40.104 -383.232c2.302 -14.322 2.404 -30.896 12.686 -42.252c12.07 -9.208 25.166 3.018 32.584 12.276c65.832 89.006 133.2 176.936 199.39 265.736
c7.008 10.384 16.728 18.416 27.98 23.838c-0.562 -13.096 -2.66 -26.242 -7.928 -38.314c-39.438 -95.808 -77.496 -192.23 -116.78 -288.09c-4.348 -13.094 -11.202 -27.212 -6.6 -41.176c6.702 -13.402 24.554 -7.11 35.756 -3.838
c75.398 30.282 150.644 61.076 225.94 91.666c18.006 8.132 36.522 15.55 56.318 17.954v-9.054c-12.02 -14.782 -27.418 -26.088 -41.894 -38.262c-60.972 -51.868 -121.486 -104.248 -182.868 -155.604c-9.976 -8.85 -20.666 -20.462 -18.62 -34.938
c3.632 -12.122 16.624 -17.29 27.572 -20.922c72.226 -16.778 143.788 -36.624 215.81 -54.426v-9.36c-87.418 -19.234 -173.968 -42.866 -262.206 -58.16c-15.602 -1.74 -32.89 -7.672 -47.52 0.92c-6.6 10.282 -1.944 22.764 -1.074 33.914
c6.802 40.156 1.738 82.254 -15.756 119.084c-26.956 57.904 -81.996 102.304 -144.862 114.478c-56.524 11.612 -117.702 -2.098 -163.33 -37.546c-60.154 -44.348 -92.586 -124.198 -77.598 -197.806c1.534 -11.304 5.678 -25.166 -4.348 -33.914
c-9.462 -4.194 -19.95 -2.71 -29.872 -1.38c-86.754 12.48 -170.85 38.108 -256.632 55.602c-6.65 1.688 -13.248 3.682 -19.846 5.524v6.496c7.878 3.734 16.112 6.804 24.654 8.748c61.844 13.452 122.306 32.84 184.252 46.036c13.196 3.478 29.36 8.39 34.016 22.866
c1.586 14.424 -9.156 25.934 -19.03 34.886c-53.76 45.014 -106.804 90.948 -160.156 136.422c-20.974 19.132 -44.758 35.244 -63.736 56.422v10.486c10.69 -2.354 21.586 -4.246 31.816 -8.39c79.132 -33.094 158.982 -64.452 238.216 -97.342
c14.426 -5.626 44.502 -18.722 48.39 5.012c0.972 19.95 -8.952 38.11 -15.96 56.218c-31.51 77.648 -62.866 155.4 -94.426 232.998c-9.004 23.53 -22.2 46.344 -21.894 72.278c11.51 -4.962 21.126 -12.992 28.134 -23.326c65.476 -88.238 132.28 -175.4 197.754 -263.638
c7.98 -12.022 20.768 -19.49 35.45 -17.086c5.678 14.222 10.026 29.004 11.252 44.35c11.306 109.722 23.02 219.392 34.58 329.062c3.478 28.85 3.786 58.416 13.044 86.294z" />
    <glyph glyph-name="instant" unicode="&#xe621;" 
d="M438.434 878.666h368.912c9.154 -3.082 17.862 -9.06 20.098 -19.038c-1.696 -12.378 -9.226 -22.828 -18.122 -31.158c-15.602 -19.556 -34.57 -36.054 -52.008 -53.916c-10.756 -9.742 -18.45 -22.238 -29.276 -31.934c-17.392 -17.886 -36.478 -34.266 -51.868 -54.01
c-14.686 -15.132 -29.864 -29.77 -44.762 -44.666c-8.8 -8.52 -15.39 -19.04 -24.544 -27.228c-17.816 -18.286 -37.302 -35.042 -53.068 -55.186c-16.874 -17.628 -34.9 -34.124 -51.586 -51.916c-10.708 -14.284 -24.192 -26.028 -36.642 -38.712
c-9.836 -9.932 -21.32 -19.322 -26.404 -32.782c-2.26 -9.272 9.954 -13.792 17.368 -12.096c79.072 15.744 158.144 31.604 237.24 47.42c11.062 2.07 24.806 0.21 31.206 -10.144c12.99 -20.616 15.25 -45.938 27.182 -67.024c6.4 -11.508 20.568 -15.014 32.782 -15.696
c17.932 1.248 35.748 5.718 53.82 3.672c4.66 -0.966 8.238 -4.448 12.12 -6.99v-12.684c-7.694 -11.344 -18.026 -20.474 -27.604 -30.17c-25.888 -25.888 -51.726 -51.798 -77.566 -77.756c-8.214 -8.306 -17.862 -15.014 -26.052 -23.368
c-32.854 -33.018 -65.824 -65.964 -98.7 -98.982c-14.802 -16.686 -33.206 -29.464 -48.362 -45.772c-29.322 -29.512 -58.832 -58.858 -88.108 -88.416c-8.002 -8.236 -16.998 -15.112 -26.998 -20.218l-10.232 -2.562c3.718 22.12 20.498 38.288 30.97 57.28
c54.808 85.708 108.866 171.888 163.628 257.644c4.26 6.966 7.742 15.156 6.448 23.488c-2.636 12.024 -16.592 17.226 -27.628 16.566c-121.456 -18.708 -242.724 -38.382 -364.158 -57.186c-21.886 -2.848 -43.89 -8.896 -66.058 -5.224
c-7.508 2.094 -13.556 7.296 -17.344 14.002v21.652c11.86 27.58 26.734 53.726 41.16 80.014c40.054 71.988 80.602 143.718 121.104 215.448c6.66 11.79 14.59 23.252 17.65 36.666c3.482 8.73 -4.848 17.838 -13.298 19.156c-12.33 3.718 -29.18 0.046 -36.5 13.32
c-7.036 19.132 6.26 37.418 16.074 52.832c25.604 42.596 51.28 85.144 77.448 127.41c9.414 14.686 25.276 23.51 41.678 28.264z" />
    <glyph glyph-name="land" unicode="&#xe622;" 
d="M344.202 847.256l0.062 0.026c26.388 10.12 41.806 -11.078 48.006 -21.066c34.394 -48.494 48.456 -107.258 73.394 -160.532c33.756 -70.772 70.594 -142.82 129.324 -196.414c7.722 -8.288 22.994 -15.808 29.684 -7.97c24.574 28.798 44.454 61.138 62.342 94.47
c11.548 22.988 37.158 37.654 62.768 36.838c20.296 0.568 38.608 -12.432 49.874 -28.514c25.892 -39.388 38.326 -85.296 55.646 -128.688c21.324 -45.764 44.526 -91.954 80.62 -128.084c21.396 -19.978 44.632 -37.902 64.646 -59.368
c10.98 -9.74 17.144 -23.306 21.96 -36.838l0.472 -1.374c4.776 -37.66 -16.41 -55.512 -28.56 -64.12c-23.662 -18.844 -51.858 -30.712 -80.302 -40.24c-95.816 -34.004 -197.208 -51.898 -298.464 -56.25c-164.854 -7.086 -229.674 -0.142 -246.464 2.764
c-61.528 5.49 -122.666 15.762 -182.742 30.144c-49.378 13.602 -99.818 27.346 -143.812 54.478c-17.144 10.202 -49.844 22.678 -40.79 74.212l0.516 0.67c9.234 33.918 35.174 59.686 58.8 84.622c17.428 23.732 41.834 41.09 59.26 64.786
c41.408 53.24 71.8 114.166 95.64 177.004c21.82 55.08 34.606 113.208 53.982 169.138c9.706 36.06 24.088 70.772 41.55 103.786c7.792 14.558 18.526 27.594 32.588 36.52z" />
    <glyph glyph-name="planeswalker" unicode="&#xe623;" 
d="M511.888 960c1.322 -2.424 1.492 -5.23 2.006 -7.888c2.114 -14.104 2.926 -28.358 4.006 -42.568c2.442 -37.858 4.392 -75.748 6.764 -113.612c4.006 -61.898 8.562 -123.854 17.542 -185.27c4.392 -28.986 9.59 -57.978 18.47 -85.966
c11.734 -0.876 23.476 -1.738 35.186 -3.02c5.8 17.122 8.65 35.052 11.632 52.834c2.648 16.622 4.882 33.314 6.95 50.018c7.972 65.25 13.526 130.76 19.548 196.208c1.37 13.486 2.266 27.048 4.48 40.428c1.112 -2.894 1.366 -6.01 1.86 -9.044
c1.296 -9.158 2.272 -18.354 3.262 -27.552c6.29 -61.188 11.844 -122.464 19.7 -183.48c3.63 -28.002 7.622 -55.972 12.948 -83.714c3.592 -18.118 7.426 -36.302 13.898 -53.654c10.892 -3.318 21.7 -6.962 32.172 -11.442c3.282 7.514 5.75 15.358 8.074 23.216
c5.85 20.416 9.906 41.298 13.454 62.216c7.634 45.13 12.142 90.7 18.106 136.06c1.574 10.344 2.628 20.874 5.896 30.856c1.606 -4.278 2.07 -8.86 2.818 -13.334c2.894 -20.486 4.856 -41.088 6.918 -61.67c2.088 -22.354 4.33 -44.694 5.998 -67.078
c0.064 0.26 0.19 0.768 0.254 1.028c-0.032 -3.148 0.286 -6.276 0.604 -9.406c4.574 -53.926 8.98 -107.874 12.984 -161.846c-30.692 -11.608 -59.716 -27.538 -86.25 -46.812c-35.504 -25.806 -66.412 -57.71 -92.028 -93.296
c-26.706 -37.122 -47.852 -78.178 -63.022 -121.298c-19.078 -54.276 -29.842 -111.168 -35.648 -168.312c-1.878 -17.548 -3.034 -35.16 -4.818 -52.71c-0.646 -4.684 -0.762 -9.628 -3.02 -13.892h-1.118c-2.068 3.154 -2.196 7.052 -2.78 10.65
c-1.37 11.646 -2.132 23.348 -3.204 35.02c-2.698 31.468 -6.532 62.864 -12.408 93.906c-9.648 50.772 -24.232 100.918 -46.99 147.452c-26.028 53.368 -61.848 102.294 -106.738 141.34c-33.276 28.972 -71.534 52.314 -112.812 67.978
c5.698 75.126 11.722 150.244 18.704 225.268c2.372 24.372 4.626 48.768 7.976 73.024c0.7 4.424 1.244 8.904 2.546 13.196c0.172 -0.032 0.52 -0.09 0.692 -0.122c2.71 -8.77 3.782 -17.954 5.166 -27.004c4.76 -35.084 8.34 -70.314 13.354 -105.368
c3.992 -28.09 8.492 -56.16 15.346 -83.718c3.084 -11.982 6.448 -23.958 11.34 -35.35c10.472 4.512 21.306 8.11 32.192 11.474c4.062 10.814 6.986 22.01 9.602 33.25c3.966 17.434 7.102 35.04 9.906 52.696c11.386 72.878 18.044 146.38 25.458 219.74
c1.35 13.194 2.658 26.402 4.384 39.552c0.636 4.17 0.984 8.422 2.342 12.44c1.466 -9.184 2.266 -18.456 3.206 -27.704c5.864 -62.298 11.03 -124.68 18.138 -186.858c3.414 -29.55 7.058 -59.1 12.312 -88.39c2.362 -12.362 4.692 -24.814 8.924 -36.702
c11.71 1.054 23.42 2.126 35.154 2.908c8.784 27.588 13.932 56.166 18.298 84.74c4.778 31.986 8.18 64.164 11.056 96.374c4.848 54.93 7.932 109.994 11.068 165.038c1.524 24.37 2.678 48.786 5.28 73.074c0.674 5.402 1.232 10.872 2.862 16.096z" />
    <glyph glyph-name="sorcery" unicode="&#xe624;" 
d="M409 898h0.43c18.57 -4.35 38.91 -7.41 54.06 -19.98c5.22 -3.63 5.31 -10.14 5.43 -15.87c-18.99 -1.32 -37.71 5.01 -56.67 2.1c-29.46 -3.75 -60.72 -13.02 -80.55 -36.48c-17.79 -21.33 -19.08 -51.36 -13.98 -77.52c4.86 -26.55 25.53 -46.5 46.89 -61.17
c33.54 -21.33 71.94 -34.11 104.04 -57.87c33.87 -23.7 57.33 -59.19 91.35 -82.71c11.88 -8.19 25.71 -14.67 40.5 -13.89c22.62 -1.62 44.94 12.99 53.79 33.57c11.79 38.73 -5.88 85.32 -41.91 104.7c-24.39 13.65 -51.96 19.71 -77.67 30.21
c-6.9 2.61 -13.86 7.11 -15.27 14.91c1.29 5.07 4.5 10.17 10.14 10.92c41.28 6.15 83.01 -4.47 120.6 -21.3c55.83 -29.01 106.53 -69.18 143.79 -120.18c35.97 -47.79 56.07 -105.57 66.99 -163.86c1.89 -13.71 3.99 -27.36 6.54 -40.95v-88.29
c-6.33 -41.04 -14.07 -82.53 -31.95 -120.39c-26.22 -58.29 -69.75 -109.74 -125.61 -141.48c-33.15 -19.5 -44.988 -36.762 -187.504 -34.314v0c-16.216 4.742 -21.176 10.254 -23.996 20.874c4.41 14.91 21.51 19.11 34.8 22.32c14.49 3.78 33.03 4.89 40.71 19.98
c-4.05 17.4 -21.42 26.55 -36.81 32.28c-23.25 8.58 -48.81 7.65 -73.02 4.68c-35.1 -6.3 -67.17 -26.61 -103.62 -25.65c-44.58 0.75 -86.76 20.22 -122.28 46.02c-25.71 18.39 -45.57 43.83 -60.87 71.25c-10.74 19.23 -33.35 61.59 -20.85 117.59v0.49
c6.75 35.16 19.89 71.31 47.79 95.22c18.3 13.98 39.81 25.98 63.27 27.03c8.76 -0.24 19.8 -1.08 24.87 -9.39c-0.39 -3.39 -2.13 -5.85 -5.13 -7.41c-11.4 -7.47 -25.47 -12.09 -33.21 -24.06c-14.52 -19.77 -15.87 -45.81 -12.33 -69.27
c5.79 -28.98 26.37 -53.64 51.69 -68.13c20.19 -11.58 41.97 -20.67 64.83 -25.2c20.55 -4.2 41.49 -5.386 62.37 -6.3c20.744 -0.908 38.176 2.152 56.4 1.98c25.202 -0.236 51.06 -2.1 74.67 -12.21c31.62 -13.8 60.51 -36.3 77.07 -67.05
c6.3 -11.97 7.83 -25.77 14.22 -37.68c14.1 2.67 20.43 17.19 24.69 29.31c10.38 28.08 1.47 58.86 -10.53 84.9c-18.96 39.27 -56.34 66.99 -97.47 79.53c-39 12.54 -81.48 6.72 -120.06 20.82c-17.94 6.3 -31.77 20.19 -43.65 34.5c-7.35 8.82 -11.34 21.03 -7.17 32.19
c17.58 4.38 33.96 -9.24 51.6 -6.78c15 3.39 25.44 17.25 28.44 31.77c6.51 22.29 0.93 47.04 -13.56 65.01c-19.41 24.15 -47.85 38.88 -76.44 49.41c-32.04 12.3 -66.99 17.46 -96.72 35.4c-32.34 20.25 -60.24 49.83 -72.75 86.43c-12.18 31.77 -12.09 66.39 -10.56 99.9
c3.15 31.68 17.01 61.53 35.79 86.91c12.21 16.98 29.85 28.8 47.28 39.81c20.73 13.14 68.1 31.87 127.1 23.37z" />
    <glyph glyph-name="loyalty-down" unicode="&#xe625;" 
d="M1023.54 757.102c-597.826 80.282 -1023.08 2.924 -1023.08 0c0 0 76.076 -228.262 51.882 -456.38c176.272 -119.82 459.694 -198.164 459.694 -198.164h-0.744s283.42 78.344 459.694 198.164h-2.162c-24.194 228.118 51.882 456.38 51.882 456.38h2.838z" />
    <glyph glyph-name="loyalty-zero" unicode="&#xe626;" 
d="M0.458 204.564c0 0 73.542 234.766 -0.458 491.328c0 0 314 50.108 512 50.108c216 0 512 -54.28 512 -54.28c-72 -241.96 -3.296 -487.156 -3.296 -487.156s-314.704 -54.564 -508.704 -54.564c-194 0 -511.542 54.564 -511.542 54.564z" />
    <glyph glyph-name="loyalty-up" unicode="&#xe627;" 
d="M1023.54 138.898c-597.826 -80.282 -1023.08 -2.924 -1023.08 0c0 0 80.236 228.742 51.882 456.38c-0.34 2.722 455.66 220.722 455.66 220.722h2l460.984 -220.722h-2.162c-24.194 -228.118 51.882 -456.38 51.882 -456.38z" />
    <glyph glyph-name="loyalty-start" unicode="&#xe628;" 
d="M713.87 754.952l308.738 -112.732s-52.732 -73.74 -67.842 -169.44c-15.112 -95.702 -0.19 -171.256 -0.19 -171.256l-442.576 -154.008l-439.612 154.008s12.672 75.554 2.598 161.182c-10.074 85.626 -73.594 179.514 -73.594 179.514l307.452 109.79l2.208 0.024
c21.278 -55.668 87.648 -82.774 138.822 -92.938c28.442 -5.65 37.168 -5.234 62.126 -6.046c64.862 0.914 177.798 25.922 201.87 101.902z" />
    <glyph glyph-name="flashback" unicode="&#xe629;" horiz-adv-x="668" 
d="M286.504 960c11.044 0 22.052 -0.656 32.726 -1.958l113.59 -17.834c140.716 -26.402 231.336 -172.648 231.336 -372.65v-615.32c-0.004 -8.97 -7.284 -16.238 -16.266 -16.238h-525.864c-5.068 0 -9.852 2.36 -12.928 6.388l-101.918 133.324
c-2.162 2.83 -3.336 6.29 -3.336 9.848v492.628c0 228.376 113.592 381.812 282.66 381.812zM384.958 918.552c-147.544 0 -246.664 -138.442 -246.664 -344.5v-605.58h493.336v605.58c0 206.058 -99.128 344.5 -246.672 344.5h-5.68434e-014zM478.836 231.136
c8.986 0 16.266 -7.268 16.266 -16.238c-0.004 -8.97 -7.282 -16.238 -16.266 -16.238h-180.628c-8.984 0 -16.264 7.268 -16.264 16.238s7.28 16.238 16.264 16.238h180.628zM530.02 374.02c8.984 0 16.264 -7.27 16.264 -16.238
c-0.004 -8.97 -7.284 -16.238 -16.268 -16.238h-282.986c-8.984 0 -16.268 7.268 -16.266 16.238c-0.002 8.968 7.282 16.238 16.266 16.238h282.99zM470.534 552.624c8.986 0 16.266 -7.27 16.266 -16.238c-0.004 -8.97 -7.284 -16.238 -16.266 -16.238h-164.024
c-8.984 0 -16.268 7.268 -16.266 16.238c-0.002 8.968 7.282 16.238 16.266 16.238h164.024zM530.02 676.026c8.984 0 16.264 -7.27 16.264 -16.238c-0.004 -8.97 -7.284 -16.238 -16.268 -16.238h-282.986c-8.984 0 -16.268 7.268 -16.266 16.238
c-0.002 8.968 7.282 16.238 16.266 16.238z" />
    <glyph glyph-name="16" unicode="&#xe62a;" 
d="M304.912 886.408v-701.468c0 -83.408 34.714 -125.144 103.992 -125.144h17.62v-47.534h-373.61v47.534h24.656c70.492 0 105.772 41.736 105.772 125.144v460.066c0 84.564 -29.968 126.868 -89.932 126.868h-37.006v47.588h14.116
c72.864 0 138.624 22.31 197.374 66.946h37.018zM542.166 504.848c64.838 60.938 130.134 91.39 196.01 91.39c71.722 0 129.24 -28.474 172.498 -85.456c40.232 -52.12 60.412 -114.958 60.412 -188.702c0 -80.594 -23.578 -151.32 -70.748 -212.248
c-52.098 -66.804 -116.948 -100.24 -194.57 -100.24c-93.388 0 -168.06 40.32 -224.038 120.882c-50.152 70.77 -75.206 154.796 -75.206 252.086c0 103.146 28.486 198.218 85.488 285.192c56.96 86.954 133.13 148.624 228.43 184.964
c54.054 20.63 111.102 31.022 171.002 31.022v-45.718c-127.742 -6.894 -223.056 -57.998 -285.992 -153.31c-32.32 -49.18 -53.486 -109.08 -63.286 -179.862zM533.294 416.432c-0.94 -17.68 -1.454 -35.38 -1.454 -53.07c0 -67.778 11.778 -130.682 35.358 -188.692
c30.43 -75.632 75.208 -113.472 134.168 -113.472c51.07 0 89.378 26.016 114.946 78.136c19.636 40.254 29.47 88.888 29.47 145.924c0 60.872 -9.364 113.002 -28.006 156.238c-25.568 58.96 -64.86 88.418 -117.93 88.418
c-64.826 0.012 -120.378 -37.85 -166.552 -113.482z" />
    <glyph glyph-name="17" unicode="&#xe62b;" 
d="M307.804 885.072v-701.468c0 -83.406 34.714 -125.144 103.992 -125.144h17.618v-47.532h-373.61v47.532h24.656c70.492 0 105.772 41.738 105.772 125.144v460.066c0 84.566 -29.968 126.868 -89.932 126.868h-37.004v47.588h14.114
c72.866 0 138.624 22.31 197.374 66.946h37.02zM719.804 10.928h-127.222v13.528c0 80.814 25.438 182.032 76.27 303.856c76.87 183.562 147.732 324.234 212.562 422.042l8.982 13.462h-297.826c-42.942 0 -75.614 -8.95 -98.068 -26.914
c-22.498 -17.974 -39.14 -47.936 -50.112 -89.84h-49.39l53.826 238.01h31.482c18.946 -9.988 51.816 -14.98 98.79 -14.98h389.098v-67.366c-13.932 -19.984 -31.886 -51.902 -53.826 -95.806c-41.938 -81.788 -80.336 -177.104 -115.312 -285.882
c-51.828 -160.648 -78.27 -297.312 -79.254 -410.11z" />
    <glyph glyph-name="18" unicode="&#xe62c;" 
d="M302.892 885.072v-701.468c0 -83.406 34.714 -125.144 103.992 -125.144h17.618v-47.532h-373.61v47.532h24.656c70.492 0 105.774 41.738 105.774 125.144l-0.002 460.066c0.002 84.566 -29.968 126.868 -89.932 126.868h-37.004v47.588h14.114
c72.866 0 138.624 22.31 197.374 66.946h37.02zM584.182 453.868l-19.466 13.232c-57.074 38.266 -94.682 69.166 -112.688 92.758c-23.034 29.404 -34.518 63.702 -34.518 102.996c0 66.708 28.508 121.146 85.604 163.344c53.05 39.228 114.628 58.874 184.724 58.874
c66.026 0 124.65 -17.188 175.67 -51.498c58.01 -38.276 87.11 -88.802 87.11 -151.62c0 -76.532 -54.61 -138.334 -163.694 -185.396c124.104 -58.872 186.184 -140.78 186.184 -245.764c0 -75.548 -29.502 -135.374 -88.628 -179.572
c-52.992 -40.232 -119.622 -60.294 -199.674 -60.294c-75.08 0 -139.648 18.608 -193.744 55.934c-62.08 42.134 -93.076 98.08 -93.076 167.716c0 69.636 33.036 127.078 99.108 172.218c18.018 11.734 47.084 27.426 87.088 47.072zM635.158 432.976
c-90.088 -40.178 -135.032 -103.434 -135.032 -189.7c0 -55.87 18.23 -100.724 54.812 -134.554c36.536 -33.84 83.34 -50.732 140.414 -50.732c50.998 0 94.336 13.462 129.848 40.374c35.522 26.924 53.304 64.37 53.304 112.328c0 72.4 -48.69 131.132 -146.034 176.162z
M735.848 520.096c79.026 34.32 118.64 85.818 118.64 154.494c0 47.126 -16.79 84.856 -50.284 113.364c-33.582 28.444 -74.868 42.68 -123.902 42.68c-41.076 0 -76.586 -10.828 -106.622 -32.386c-33.058 -23.536 -49.538 -54.962 -49.538 -94.19
c0 -48.078 23.002 -86.846 69.07 -116.294c8.976 -5.866 49.014 -24.978 120.136 -57.364z" />
    <glyph glyph-name="19" unicode="&#xe62d;" 
d="M307.6 885.072v-701.468c0 -83.406 34.714 -125.144 103.992 -125.144h17.62v-47.532h-373.61v47.532h24.656c70.492 0 105.772 41.738 105.772 125.144v460.066c0 84.566 -29.968 126.868 -89.932 126.868h-37.006v47.588h14.114c72.866 0 138.626 22.31 197.376 66.946
h37.018zM833.018 387.646c-64.708 -60.828 -130.006 -91.27 -195.698 -91.27c-71.624 0 -129.032 28.454 -172.182 85.382c-40.254 51.988 -60.348 114.806 -60.348 188.386c0 79.458 23.514 150.536 70.598 213.354c51.048 67.734 115.33 101.574 192.834 101.574
c94.208 0 169.242 -40.734 225.144 -122.17c50.066 -71.614 75.032 -156.46 75.032 -254.614c0 -139.272 -46.154 -256.754 -138.276 -352.462c-92.232 -95.63 -207.53 -143.948 -345.862 -144.898v45.618c42.166 1.924 75.972 6.84 101.586 14.686
c141.194 43.172 223.658 148.614 247.172 316.414zM841.9 475.956c0.94 18.64 1.41 36.298 1.41 52.95c0 68.674 -11.736 131.492 -35.292 188.376c-31.416 75.57 -76.488 113.354 -135.338 113.354c-51.094 0 -88.78 -26.06 -113.364 -78.028
c-19.636 -40.242 -29.404 -88.79 -29.404 -145.696c0 -60.818 9.31 -112.806 27.96 -155.978c25.482 -58.862 64.752 -88.32 117.758 -88.32c64.686 0 120.084 37.784 166.27 113.342z" />
    <glyph glyph-name="20" unicode="&#xe62e;" 
d="M544.412 236.892l-58.48 -208.964h-485.932v44.674c23.606 27.852 75.334 84.026 155.19 168.586c48.096 50.954 95.706 104.724 142.9 161.424c23.586 27.84 41.758 51.9 54.424 72.062c28.13 43.204 42.204 87.376 42.204 132.576
c0 44.148 -12.904 83.09 -38.762 116.696c-25.858 33.648 -59.216 50.492 -100.08 50.492c-87.99 0 -156.946 -62.99 -206.848 -188.822l-43.592 17.296c58.986 176.734 151.966 265.16 279.024 265.16c62.618 0 115.922 -22.568 159.932 -67.716
c44.03 -45.158 66.02 -100.858 66.02 -167.188c0 -84.56 -45.796 -167.168 -137.456 -247.854l-95.26 -83.552c-60.812 -53.842 -111.21 -104.272 -151.072 -151.352c-2.778 -2.866 -8.194 -9.62 -16.336 -20.174h253.136c39.002 0 68.51 8.15 88.456 24.522
c17.21 14.408 34.062 41.798 50.388 82.134zM522.906 422.506c0 102.784 19.126 197.574 57.45 284.308c47.484 107.498 112.498 161.258 194.986 161.258c81.632 0 145.376 -45.778 191.208 -137.198c38.296 -75.466 57.45 -163.168 57.45 -263.084
c0 -103.768 -19.154 -197.582 -57.45 -281.482c-46.686 -105.628 -111.682 -158.38 -194.976 -158.38c-79.166 0 -142.026 45.232 -188.712 135.748c-39.976 77.304 -59.956 163.578 -59.956 258.83zM627.85 469.178c0 -135.748 17.91 -241.378 53.776 -316.824
c24.972 -52.772 57.032 -79.194 96.202 -79.194c94.152 0 141.246 110.332 141.246 331c0 97.08 -7.506 179.152 -22.474 246.102c-25.844 110.312 -69.58 165.51 -131.262 165.51c-91.674 0 -137.488 -106.594 -137.488 -319.71z" />
    <glyph glyph-name="100" unicode="&#xe900;" horiz-adv-x="1841" 
d="M291.069 959.986v-820.571c0 -98.187 41.291 -147.249 123.991 -147.249h21.555v-56.166h-436.615v56.166h27.404c79.962 0 119.923 49.062 119.923 147.249v538.286c0 99.3 -34.521 149.028 -103.436 149.028h-43.892v54.362h15.834
c85.247 0 162.443 26.329 231.419 78.91l43.816 -0.014zM422.031 416.928c0 125.275 26.382 240.808 79.246 346.526c65.499 131.021 155.176 196.546 268.958 196.546c112.603 0 200.527 -55.795 263.746 -167.22c52.827 -91.983 79.246 -198.877 79.246 -320.657
c0 -126.479 -26.419 -240.824 -79.246 -343.084c-64.397 -128.743 -154.049 -193.039 -268.944 -193.039c-109.198 0 -195.906 55.13 -260.303 165.455c-55.144 94.222 -82.702 199.374 -82.702 315.473h-0.001zM566.787 473.812
c0 -165.455 24.705 -294.199 74.177 -386.156c34.446 -64.321 78.671 -96.525 132.699 -96.525c129.871 0 194.832 134.478 194.832 403.435c0 118.324 -10.355 218.358 -31.001 299.958c-35.649 134.455 -95.975 201.73 -181.059 201.73
c-126.451 0 -189.647 -129.921 -189.647 -389.675v-32.768zM1149.7 416.928c0 125.275 26.38 240.808 79.246 346.526c65.497 131.021 155.176 196.546 268.955 196.546c112.603 0 200.529 -55.795 263.748 -167.22c52.827 -91.983 79.246 -198.877 79.246 -320.657
c0 -126.479 -26.419 -240.824 -79.246 -343.084c-64.397 -128.743 -154.049 -193.039 -268.944 -193.039c-109.198 0 -195.906 55.13 -260.303 165.455c-55.144 94.222 -82.702 199.374 -82.702 315.473zM1294.46 473.812c0 -165.455 24.705 -294.199 74.177 -386.156
c34.446 -64.321 78.671 -96.525 132.699 -96.525c129.871 0 194.832 134.478 194.832 403.435c0 118.324 -10.355 218.358 -31.003 299.958c-35.647 134.455 -95.975 201.73 -181.057 201.73c-126.454 0 -189.647 -129.921 -189.647 -389.675v-32.768z" />
    <glyph glyph-name="1000000" unicode="&#xe901;" horiz-adv-x="5120" 
d="M291.069 959.986v-820.572c0 -98.188 41.291 -147.248 123.993 -147.248h21.555v-56.166h-436.617v56.166h27.406c79.961 0 119.921 49.06 119.921 147.248v538.286c0 99.301 -34.522 149.026 -103.434 149.026h-43.892v54.364h15.834
c85.245 0 162.441 26.327 231.421 78.909l43.814 -0.014zM630.245 416.928c0 125.273 26.382 240.807 79.244 346.525c65.498 131.024 155.177 196.547 268.957 196.547c112.606 0 200.53 -55.794 263.748 -167.223c52.828 -91.979 79.247 -198.874 79.247 -320.655
c0 -126.478 -26.419 -240.821 -79.247 -343.084c-64.396 -128.744 -154.051 -193.038 -268.943 -193.038c-109.199 0 -195.908 55.129 -260.304 165.455c-55.142 94.222 -82.702 199.376 -82.702 315.474v-0.001zM775.001 473.812
c0 -165.455 24.706 -294.199 74.179 -386.154c34.444 -64.321 78.667 -96.529 132.697 -96.529c129.871 0 194.833 134.479 194.833 403.436c0 118.327 -10.356 218.358 -31.003 299.96c-35.649 134.455 -95.976 201.731 -181.057 201.731
c-126.454 0 -189.648 -129.922 -189.648 -389.676v-32.768h-0.001zM1357.92 416.928c0 125.273 26.382 240.807 79.247 346.525c65.498 131.024 155.174 196.547 268.957 196.547c112.602 0 200.527 -55.794 263.745 -167.223
c52.828 -91.979 79.247 -198.874 79.247 -320.655c0 -126.478 -26.419 -240.821 -79.247 -343.084c-64.396 -128.744 -154.051 -193.038 -268.943 -193.038c-109.199 0 -195.905 55.129 -260.304 165.455c-55.142 94.222 -82.702 199.376 -82.702 315.474zM1502.67 473.812
c0 -165.455 24.706 -294.199 74.179 -386.154c34.444 -64.321 78.671 -96.529 132.7 -96.529c129.871 0 194.83 134.479 194.83 403.436c0 118.327 -10.356 218.358 -31.003 299.96c-35.645 134.455 -95.973 201.731 -181.057 201.731
c-126.454 0 -189.648 -129.922 -189.648 -389.676zM2087.26 416.928c0 125.273 26.382 240.807 79.247 346.525c65.498 131.024 155.177 196.547 268.957 196.547c112.602 0 200.527 -55.794 263.745 -167.223c52.828 -91.979 79.247 -198.874 79.247 -320.655
c0 -126.478 -26.419 -240.821 -79.247 -343.084c-64.396 -128.744 -154.047 -193.038 -268.943 -193.038c-109.196 0 -195.905 55.129 -260.304 165.455c-55.142 94.222 -82.702 199.376 -82.702 315.474zM2232.01 473.812c0 -165.455 24.706 -294.199 74.179 -386.154
c34.444 -64.321 78.671 -96.529 132.7 -96.529c129.871 0 194.83 134.479 194.83 403.436c0 118.327 -10.356 218.358 -31 299.96c-35.649 134.455 -95.976 201.731 -181.06 201.731c-126.454 0 -189.648 -129.922 -189.648 -389.676zM481.324 -64v27.549
c34.748 3.47467 60.9327 11.5417 78.554 24.201c17.6213 12.6593 26.4323 29.9093 26.433 51.75c0 13.8993 -2.23333 24.1997 -6.7 30.901s-12.1603 10.3 -23.081 10.796l-9.68 0.744c-12.9067 0.496 -23.207 4.467 -30.901 11.913s-11.5407 17.3743 -11.54 29.785
c0 14.3953 4.591 25.813 13.773 34.253c9.184 8.438 20.7257 12.657 34.625 12.657c21.8407 0 40.2077 -10.4243 55.101 -31.273c14.8913 -20.8487 22.337 -46.6613 22.337 -77.438c0 -39.2147 -13.031 -69.8663 -39.093 -91.955
c-26.0593 -22.0913 -62.6683 -33.385 -109.827 -33.881zM2968.38 416.928c0 125.273 26.382 240.807 79.244 346.525c65.498 131.024 155.177 196.547 268.957 196.547c112.606 0 200.53 -55.794 263.748 -167.223c52.828 -91.979 79.247 -198.874 79.247 -320.655
c0 -126.478 -26.419 -240.821 -79.247 -343.084c-64.396 -128.744 -154.051 -193.038 -268.943 -193.038c-109.199 0 -195.908 55.129 -260.304 165.455c-55.142 94.222 -82.702 199.376 -82.702 315.474zM3113.13 473.812c0 -165.455 24.706 -294.199 74.179 -386.154
c34.444 -64.321 78.671 -96.529 132.697 -96.529c129.871 0 194.833 134.479 194.833 403.436c0 118.327 -10.356 218.358 -31.003 299.96c-35.649 134.455 -95.976 201.731 -181.057 201.731c-126.454 0 -189.648 -129.922 -189.648 -389.676zM3696.05 416.928
c0 125.273 26.382 240.807 79.247 346.525c65.498 131.024 155.174 196.547 268.957 196.547c112.602 0 200.527 -55.794 263.745 -167.223c52.828 -91.979 79.247 -198.874 79.247 -320.655c0 -126.478 -26.419 -240.821 -79.247 -343.084
c-64.396 -128.744 -154.047 -193.038 -268.943 -193.038c-109.199 0 -195.905 55.129 -260.304 165.455c-55.142 94.222 -82.702 199.376 -82.702 315.474zM3840.81 473.812c0 -165.455 24.706 -294.199 74.179 -386.154c34.444 -64.321 78.671 -96.529 132.7 -96.529
c129.871 0 194.83 134.479 194.83 403.436c0 118.327 -10.356 218.358 -31 299.96c-35.649 134.455 -95.976 201.731 -181.06 201.731c-126.454 0 -189.648 -129.922 -189.648 -389.676zM4425.39 416.928c0 125.273 26.382 240.807 79.247 346.525
c65.498 131.024 155.177 196.547 268.957 196.547c112.602 0 200.527 -55.794 263.748 -167.223c52.825 -91.979 79.244 -198.874 79.244 -320.655c0 -126.478 -26.419 -240.821 -79.244 -343.084c-64.399 -128.744 -154.051 -193.038 -268.947 -193.038
c-109.196 0 -195.905 55.129 -260.304 165.455c-55.142 94.222 -82.702 199.376 -82.702 315.474zM4570.15 473.812c0 -165.455 24.702 -294.199 74.175 -386.154c34.447 -64.321 78.671 -96.529 132.7 -96.529c129.871 0 194.83 134.479 194.83 403.436
c0 118.327 -10.356 218.358 -31 299.96c-35.649 134.455 -95.976 201.731 -181.06 201.731c-126.45 0 -189.645 -129.922 -189.645 -389.676zM2819.46 -64v27.549c34.748 3.47467 60.9327 11.5417 78.554 24.201c17.6213 12.6593 26.4323 29.9093 26.433 51.75
c0 13.8993 -2.23333 24.1997 -6.7 30.901s-12.1603 10.3 -23.081 10.796l-9.68 0.744c-12.9067 0.496 -23.207 4.467 -30.901 11.913s-11.5407 17.3743 -11.54 29.785c0 14.3953 4.591 25.813 13.773 34.253c9.184 8.438 20.7257 12.657 34.625 12.657
c21.8407 0 40.2077 -10.4243 55.101 -31.273c14.8913 -20.8487 22.337 -46.6613 22.337 -77.438c0 -39.2147 -13.031 -69.8663 -39.093 -91.955c-26.0593 -22.0913 -62.6683 -33.385 -109.827 -33.881z" />
    <glyph glyph-name="half" unicode="&#xe902;" 
d="M544.586 959.994v-361.866c0 -43.3 18.21 -64.936 54.68 -64.936h9.506v-24.77h-192.544v24.77h12.084c35.264 0 52.886 21.636 52.886 64.936v237.38c0 43.79 -15.224 65.72 -45.614 65.72h-19.356v23.972h6.982c37.594 0 71.636 11.612 102.056 34.8zM666.792 48.232
l-33.256 -112.232h-276.328v23.994c13.424 14.958 42.838 45.128 88.25 90.546c27.35 27.366 54.424 56.246 81.26 86.698c13.414 14.952 23.746 27.874 30.95 38.704c15.996 23.204 24 46.928 24 71.204c0 23.712 -7.338 44.628 -22.044 62.676
c-14.704 18.072 -33.672 27.12 -56.91 27.12c-50.036 0 -89.248 -33.832 -117.626 -101.414l-24.79 9.288c33.544 94.924 86.418 142.416 158.67 142.416c35.608 0 65.92 -12.122 90.946 -36.37c25.038 -24.254 37.542 -54.17 37.542 -89.796
c0 -45.416 -26.04 -89.782 -78.164 -133.118l-54.17 -44.874c-34.582 -28.92 -63.24 -56.004 -85.908 -81.29c-1.58 -1.54 -4.66 -5.166 -9.29 -10.836h143.948c22.178 0 38.958 4.378 50.3 13.17c9.786 7.74 19.37 22.45 28.654 44.114zM892 468.684v-43.368h-760v43.368
h760z" />
    <glyph glyph-name="infinity" unicode="&#xe903;" 
d="M687.438 552c-16.2387 -10.42 -35.22 -24.2467 -56.944 -41.48s-44.874 -37.6727 -69.45 -61.318c45.6427 -46.0893 87.664 -80.4553 126.064 -103.098c38.4013 -22.644 72.5233 -33.966 102.366 -33.966c20.628 0 39.7193 3.70733 57.274 11.122
c17.5547 7.41333 32.8053 17.6327 45.752 30.658s23.15 28.0547 30.61 45.088c7.46133 17.032 11.192 35.1667 11.192 54.404c0 19.2373 -3.73067 36.7713 -11.192 52.602c-7.46 15.8307 -17.7733 29.4567 -30.94 40.878c-13.1653 11.4227 -28.7453 20.34 -46.74 26.752
c-17.9933 6.41333 -37.742 9.62 -59.246 9.62c-31.5987 0 -64.514 -10.4207 -98.746 -31.262zM240.45 312.138c31.5987 0 66.3787 10.9207 104.34 32.762c37.9627 21.8427 78.2293 54.8067 120.8 98.892c-43.448 46.4893 -84.9213 81.3567 -124.42 104.602
s-76.3633 34.868 -110.594 34.868c-20.628 0 -39.6093 -3.50733 -56.944 -10.522c-17.336 -7.01333 -32.2573 -16.5313 -44.764 -28.554c-12.508 -12.024 -22.2733 -26.0513 -29.296 -42.082c-7.02133 -16.0307 -10.532 -33.0633 -10.532 -51.098
c0 -19.2373 3.84 -37.272 11.52 -54.104c7.68 -16.8333 18.3227 -31.562 31.928 -44.186c13.6053 -12.624 29.624 -22.5433 48.056 -29.758c18.432 -7.21333 38.4007 -10.82 59.906 -10.82zM228.6 658.406c93.04 0 188.713 -52.1007 287.02 -156.302
c28.9653 28.0547 57.0533 52.7027 84.264 73.944c27.2093 21.24 51.1273 37.4713 71.754 48.694c21.0667 11.2213 42.7907 19.6373 65.172 25.248c22.3827 5.61067 44.546 8.416 66.49 8.416c31.5987 0 60.8927 -5.21 87.882 -15.63
c26.9907 -10.42 50.3607 -24.848 70.11 -43.284c19.7493 -18.4347 35.11 -40.5773 46.082 -66.428c10.9707 -25.8493 16.456 -54.0033 16.456 -84.462c0 -30.86 -6.034 -59.2153 -18.102 -85.066c-12.0693 -25.8493 -28.856 -48.092 -50.36 -66.728
c-21.5053 -18.636 -47.0693 -33.164 -76.692 -43.584c-29.624 -10.42 -61.7713 -15.63 -96.442 -15.63c-40.8147 0 -84.0433 12.524 -129.686 37.572s-93.6987 62.6207 -144.168 112.718c-49.1533 -50.0973 -97.4293 -87.67 -144.828 -112.718
c-47.3973 -25.048 -94.356 -37.572 -140.876 -37.572c-31.16 0 -60.2353 5.41067 -87.226 16.232c-26.9907 10.82 -50.58 25.548 -70.768 44.184c-20.188 18.636 -35.9873 40.6787 -47.398 66.128c-11.4107 25.4493 -17.116 53.0027 -17.116 82.66
c0 30.0573 5.92533 58.0113 17.776 83.862c11.8493 25.8493 28.0873 48.1927 48.714 67.03c20.6267 18.836 44.874 33.664 72.742 44.484c27.868 10.8213 57.6013 16.232 89.2 16.232z" />
    <glyph glyph-name="c" unicode="&#xe904;" 
d="M429.026 770.134c32.402 45.904 53.618 98.288 82.782 146.198c28.158 -46.29 48.602 -96.976 79.462 -141.646c65.654 -97.052 150.21 -181.454 247.262 -247.106c44.824 -30.938 95.588 -51.46 141.878 -79.85c-46.598 -27.774 -97.208 -48.372 -141.954 -79.31
c-98.596 -66.732 -184.31 -152.676 -250.272 -251.812c-29.394 -43.436 -49.144 -92.348 -76.454 -136.94c-28.236 46.212 -48.68 96.898 -79.54 141.568c-65.732 96.976 -149.978 181.686 -247.186 247.184c-44.668 30.784 -95.278 51.304 -141.414 79.772
c47.988 28.778 100.14 50.224 146.044 82.396c93.582 64.188 175.05 146.12 239.392 239.546zM235.922 448.038c107.47 -74.68 201.282 -168.262 275.73 -275.884c74.836 107.392 168.186 201.59 276.194 275.73c-107.7 74.68 -201.436 168.416 -276.194 275.962
c-74.68 -107.392 -168.184 -201.204 -275.73 -275.808z" />
    <glyph glyph-name="dfc-night" unicode="&#xe905;" 
d="M472.98 956.64c65.98 4.82 133 -2.96 195.94 -23.38c118.68 -38.44 221.6 -122.5 283.42 -230.8c43 -74.62 66.48 -160.3 67.58 -246.42c1.4 -79.04 -15.88 -158.32 -50.2 -229.54c-50.42 -105.48 -138.3 -192.54 -244.5 -241.56
c-70.78 -33.06 -149.3 -49.06 -227.38 -46.76c-83.96 2.02 -167.18 25.78 -239.74 68.02c-112.24 64.7 -197.66 173.88 -233.66 298.32c-25.72 87.9 -27.06 182.72 -4.16 271.36c27.02 106.54 90.1 203.32 176.08 271.68c78.52 63 176.3 101.34 276.62 109.08zM253.66 790.3
c-58.92 -44.18 -107.7 -102.4 -138.62 -169.4c-29.18 -62.44 -42.72 -132.2 -38.32 -201.02c3.96 -70.9 27.02 -140.42 65.06 -200.3c38.74 -61.12 92.6 -112.32 154.88 -149.04c77.12 -45.66 166.74 -70.14 256.38 -69.62c-19.92 5.98 -39.46 13.22 -58.38 21.8
c-77.96 35.64 -148.24 89.72 -198.5 159.56c-43.22 59.28 -71.94 129.16 -82.06 201.88c-11.38 82 0.76 167.22 35.2 242.56c40.08 88.86 109.32 163.74 193.34 212.82c35.06 20.76 72.36 37.94 111.48 49.54c-107.22 -0.34 -214.02 -35.3 -300.46 -98.78z" />
    <glyph glyph-name="dfc-day" unicode="&#xe906;" 
d="M473.302 956.394c117.026 9.518 236.88 -23.568 332.59 -91.56c104.974 -73.712 180.536 -188.228 205.73 -314.102c18.722 -91.384 12.092 -187.95 -19.732 -275.712c-24.086 -67.302 -62.896 -129.18 -112.374 -180.728
c-52.704 -54.656 -117.6 -97.636 -188.828 -124.074c-92.642 -34.986 -195.516 -41.398 -291.998 -19.63c-61.096 13.952 -119.618 39.24 -171.55 74.326c-62.798 42.426 -116.116 98.882 -154.59 164.204c-38.058 64.272 -61.49 137.074 -68.358 211.42
c-7.878 84.516 5.542 171.01 39.246 248.958c30.736 71.694 78.412 135.966 137.766 186.564c81.282 69.716 185.186 112.854 292.098 120.334zM392.634 886.106c-7.284 -27.05 -20.168 -52.974 -39.98 -73.04c-22.344 -23.824 -52.346 -40.23 -84.35 -46.66
c-25.55 -5.126 -52.248 -3.522 -77.284 3.582c5.542 -22.48 9.48 -45.89 5.66 -69.002c-5.066 -42.15 -28.162 -81.806 -62.342 -106.996c-18.088 -13.992 -39.562 -22.58 -61.452 -28.596c29.628 -27.782 48.806 -66.666 50.944 -107.372
c2.018 -31.444 -6.076 -63.6 -22.246 -90.67c-8.054 -13.852 -18.98 -25.646 -30.024 -37.122c7.938 -2.91 16.19 -4.85 24.086 -7.936c31.864 -12.268 59.532 -35.224 77.206 -64.47c19.83 -32.058 27.668 -71.418 21.098 -108.56
c-1.188 -7.896 -4.058 -15.474 -4.572 -23.488c14.388 2.434 28.538 7.024 43.302 6.826c36.832 1.762 74 -10.112 103.212 -32.552c29.568 -22.48 50.21 -55.644 58.72 -91.7c24.918 27.012 58.84 45.87 95.394 50.936c30.538 5.046 62.362 -0.652 90.288 -13.654
c19.454 -9.024 36.236 -22.856 50.824 -38.43c4.63 15.95 9.024 32.176 17.554 46.582c23.572 43.278 68.972 73.832 117.976 79.254c23.234 3.562 46.924 -0.318 69.288 -6.906c-9.638 30.692 -10.886 64.034 -1.346 94.904c13.518 46.424 50.032 85.25 95.434 101.812
c7.618 3.008 15.792 4.394 23.254 7.896c-19.87 18.324 -36.178 40.824 -44.886 66.568c-15.814 43.494 -10.252 93.678 13.834 133.096c7.856 13.932 19.434 25.052 30.004 36.866c-6.018 1.722 -12.074 3.166 -17.992 5.086
c-47.834 14.822 -86.606 54.676 -100.914 102.564c-6.73 20.658 -7.324 42.644 -5.622 64.134c1.168 10.686 4.434 20.976 6.532 31.484c-14.368 -2.712 -28.618 -6.946 -43.382 -6.828c-35.744 -1.404 -71.782 9.836 -100.48 31.148
c-21.176 15.336 -37.86 36.41 -49.22 59.86c-5.108 10.488 -8.116 21.786 -11.994 32.73c-22.126 -23.41 -51.14 -40.27 -82.708 -47.038c-42.036 -9.478 -87.734 -0.554 -123.358 23.568c-10.192 6.67 -18.94 15.178 -27.984 23.212
c-0.614 -0.276 -1.862 -0.812 -2.474 -1.088zM471.284 758.392c48.388 7.518 98.204 0 144.08 -16.346c55.196 -20.362 105.506 -55.606 140.854 -102.92c28.478 -37.46 48.508 -81.25 58.166 -127.298c4.056 -17.652 5.304 -35.718 6.866 -53.706
c0.912 -76.008 -26.54 -151.996 -75.938 -209.836c-26.48 -31.762 -60.58 -56.694 -97.332 -75.336c-54.566 -26.99 -117.086 -38.904 -177.568 -30.334c-63.074 8.824 -123.338 36.964 -170.422 79.846c-55.93 51.648 -91.494 124.35 -99.114 199.982
c-6.926 72.406 14.072 146.532 55.614 205.996c48.646 71.378 129.632 118.434 214.794 129.952zM476.924 780.02c-77.284 -5.936 -151.204 -42.486 -204.602 -98.428c-56.008 -56.338 -90.564 -134.046 -92.642 -213.636c-1.326 -11.774 -1.246 -23.706 0.06 -35.48
c0.692 -30.514 6.59 -60.81 16.228 -89.74c21.216 -64.056 64.362 -119.502 117.936 -159.95c55.99 -41.656 125.99 -64.986 195.912 -62.69c26.818 -0.732 53.694 1.602 79.74 8.132c84.904 19.572 159.12 76.306 204.66 149.998
c23.532 38.092 38.474 81.25 44.432 125.576c5.382 46.484 3.462 94.252 -9.56 139.39c-12.944 46.384 -36.97 89.504 -68.892 125.518c-14.468 15.178 -29.054 30.434 -45.62 43.356c-31.784 25.212 -68.358 44.406 -107.248 55.942
c-42.096 12.724 -86.744 15.99 -130.404 12.012z" />
    <glyph glyph-name="e, energy" unicode="&#xe907;" horiz-adv-x="872" 
d="M651.096 879.704c14.242 2.256 27.87 7.214 41.974 10.206c-0.17 -5.678 0.936 -11.234 1.58 -16.85c0.69 -22.668 4.528 -45.058 6.598 -67.618c4.712 -34.882 10.882 -69.564 18.402 -103.956c2.976 -13.336 5.064 -26.902 9.038 -40.008
c4.328 -13.996 5.848 -28.744 11.28 -42.434c4.512 -16.114 9.162 -32.228 15.024 -47.912c3.928 -9.238 6.462 -18.984 9.822 -28.436c4.834 -16.712 13.09 -32.12 19.352 -48.312c3.208 -9.068 7.646 -16.83 11.156 -25.724c5.242 -13.276 11.53 -24.108 18.17 -35.986
c12.508 -23.554 19.952 -36.762 29.698 -48.916c5.448 -8.732 11.462 -17.654 18.338 -25.374c3.79 -4.804 9.406 -8.962 9.96 -15.516c-8.334 -3.038 -16.284 -6.966 -24.402 -10.496c-24.554 -8.118 -48.31 -18.462 -71.698 -29.48
c-32.382 -13.89 -63.044 -31.37 -93.046 -49.724c-45.104 -27.286 -88.12 -58.254 -126.67 -94.288c-24.57 -23.036 -48.172 -47.19 -69.382 -73.372c-7.856 -9.684 -15.438 -19.644 -21.776 -30.402c-6.568 -11.094 -14.964 -20.978 -21.638 -32.028
c-3.454 -5.708 -6.538 -11.678 -10.636 -16.988c-4.466 5.418 -7.934 11.54 -11.51 17.572c-27.624 45.518 -61.554 87.106 -99.936 123.984c-45.026 43.6 -96.008 80.722 -149.844 112.69c-27.608 15.776 -55.906 30.354 -84.498 44.274
c-7.58 3.928 -16.098 5.724 -23.28 10.466c-20.304 9.96 -42.08 16.452 -62.66 25.782c5.342 10.636 13.076 19.752 19.858 29.436c14.228 19.612 26.396 40.59 38.136 61.738c30.602 55.508 53.238 115.084 70.978 175.856c18.202 61.14 30.002 124.03 38.044 187.258
c3.04 23.818 5.172 47.726 6.752 71.682c0.108 6.83 0.66 13.644 1.474 20.428c6.89 -0.124 13.612 -1.644 20.212 -3.516c22.374 -6.322 45.272 -10.542 68.168 -14.456c36.402 -6.062 73.004 -11.356 109.896 -13.074c23.496 -1.366 46.992 -3.346 70.548 -3.1
c22.576 -0.108 45.088 1.794 67.602 3.238c21.07 1.61 42.09 3.836 62.936 7.288c17.758 2.942 21.11 3.344 23.256 3.748c17.988 3.372 35.23 6.934 52.724 12.32zM551.13 812.61c-21.716 -7.95 -44.52 -12.216 -67.156 -16.544
c-17.664 -2.118 -35.39 -4.112 -53.208 -3.59c-34.666 -0.814 -69.688 4.312 -101.992 17.202c-0.414 -4.004 -0.23 -8.042 0.446 -12.016c2.394 -16.498 3.314 -33.27 1.318 -49.86c-2.532 -36.694 -12.506 -72.42 -25.398 -106.72
c-3.16 -8.732 -7.658 -17.02 -9.392 -26.228c-32.274 -72.512 -75.536 -139.714 -124.552 -201.99c-4.742 -6.03 -10.006 -11.664 -13.996 -18.246c7.26 -0.124 14.012 2.746 20.978 4.342c36.02 9.316 72.728 16.36 109.774 19.858c25.444 3.392 51.196 2.532 76.824 2.548
c28.698 -0.154 57.336 -4.22 85.036 -11.74c1.166 -2.486 0.384 -5.28 -0.154 -7.812c-9.192 -29.94 -14.64 -60.924 -18.124 -92.002c-4.19 -37.676 -3.622 -75.688 -2.978 -113.548c2.15 -38.688 5.402 -77.454 13.076 -115.528c3.024 13.366 4.696 27.024 8.026 40.33
c7.766 33.838 19.352 66.68 32.534 98.754c22.376 53.76 49.862 105.262 79.802 155.154c32.444 53.604 67.494 105.644 105.446 155.506c3.208 3.3 1.75 8.042 1.872 12.124c-3.008 -0.124 -6.046 -0.216 -8.992 -0.86c-15.884 -3.53 -32.014 -5.74 -48.08 -8.288
c-11.434 -1.272 -22.79 -3.468 -34.316 -3.712c1.52 -0.43 3.054 -0.844 4.604 -1.26c-6.598 0.446 -13.212 0.138 -19.796 -0.152c-17.266 -2.472 -34.776 -1.32 -52.164 -1.688c-16.866 0.368 -33.87 -0.814 -50.612 1.688c-14.304 0.092 -28.176 4.188 -42.372 5.218
c-0.936 14.056 2.886 27.806 5.386 41.512c18.002 84.358 62.87 161.446 121.254 224.396c4.074 4.392 10.726 7.72 13.826 13.52c-2.01 1.95 -4.696 0.122 -6.92 -0.368z" />
    <glyph glyph-name="dfc-ignite" unicode="&#xe908;" 
d="M512 960c282.77 0 512 -229.23 512 -512s-229.23 -512 -512 -512s-512 229.23 -512 512c0 282.77 229.23 512 512 512zM510.852 908.978v0c-1.702 -6.482 -2.858 -13.066 -3.51 -19.742c-3.192 -29.792 -4.608 -59.74 -6.476 -89.63
c-3.846 -67.516 -7.63 -135.054 -13.576 -202.43c-3.528 -39.508 -7.7 -78.976 -13.562 -118.208c-5.354 -35.048 -11.668 -70.1 -22.442 -103.94c-14.394 -0.958 -28.756 -2.274 -43.12 -3.566c-5.19 14.582 -8.048 29.854 -10.946 45.018
c-6.444 35.926 -10.912 72.17 -15.1 108.416c-8.718 76.264 -15.056 152.78 -22.248 229.192c-1.152 11.344 -2.134 22.716 -3.932 33.98c-1.666 -4.928 -2.092 -10.144 -2.872 -15.258c-2.118 -16.13 -3.722 -32.33 -5.378 -48.512
c-9.094 -89.982 -17.26 -180.136 -31.226 -269.526c-3.44 -21.656 -7.286 -43.25 -12.15 -64.634c-3.208 -13.788 -6.796 -27.52 -11.778 -40.784c-13.352 -4.126 -26.64 -8.54 -39.486 -14.074c-6 13.974 -10.126 28.662 -13.908 43.36
c-8.408 33.802 -13.926 68.23 -18.824 102.686c-6.15 42.994 -10.54 86.206 -16.378 129.24c-1.698 11.1 -3.014 22.364 -6.338 33.122l-0.848 0.15c-1.596 -5.266 -2.264 -10.76 -3.122 -16.186c-4.11 -29.752 -6.874 -59.676 -9.784 -89.568
c-8.564 -92.022 -15.952 -184.16 -22.942 -276.306c50.63 -19.214 97.556 -47.844 138.372 -83.38c73.698 -64.444 159.922 -143.886 210.274 -227.366c0.91 -0.078 1.232 -2.624 2.224 -0.672c28.89 56.974 60.89 95.64 107.558 139.64
c40.65 38.326 83.118 73.68 126.666 105.334c32.546 23.64 77.426 52.174 115.072 66.412c-4.91 66.2 -10.314 132.37 -15.926 198.514c-0.39 3.84 -0.78 7.676 -0.74 11.538l-0.312 -1.262c-2.046 27.456 -4.796 54.856 -7.356 82.276
c-2.53 25.244 -4.936 50.514 -8.486 75.642c-0.918 5.488 -1.486 11.108 -3.456 16.354c-4.008 -12.242 -5.302 -25.158 -7.232 -37.846c-7.316 -55.638 -12.844 -111.532 -22.208 -166.886c-4.352 -25.658 -9.326 -51.27 -16.502 -76.312
c-2.85 -9.638 -5.878 -19.26 -9.904 -28.476c-12.844 5.494 -26.1 9.964 -39.46 14.034c-7.938 21.284 -12.642 43.588 -17.048 65.81c-6.532 34.028 -11.428 68.334 -15.882 102.68c-9.634 74.84 -16.448 150 -24.162 225.05c-1.214 11.282 -2.412 22.562 -4.002 33.794
c-0.606 3.722 -0.916 7.544 -2.28 11.094c-2.716 -16.412 -3.816 -33.046 -5.496 -49.588c-7.386 -80.276 -14.198 -160.628 -23.976 -240.66c-2.538 -20.49 -5.278 -40.964 -8.526 -61.352c-3.656 -21.81 -7.152 -43.802 -14.266 -64.804
c-14.364 1.572 -28.766 2.63 -43.158 3.704c-10.892 34.33 -17.268 69.89 -22.654 105.444c-11.016 75.33 -16.604 151.322 -21.518 227.244c-2.908 46.444 -5.3 92.918 -8.296 139.352c-1.324 17.43 -2.32 34.914 -4.914 52.214c-0.56 3.276 -0.89 6.69 -2.46 9.674v0z" />
    <glyph glyph-name="dfc-spark" unicode="&#xe909;" 
d="M512.018 960c282.772 0 512.002 -229.23 512.002 -512s-229.23 -512 -512 -512s-512 229.23 -512 512c0 282.77 229.23 512 512 512h-0.002zM518.922 514.688c-154.73 -7.418 -264.744 -40.618 -400.008 -120.272c61.636 -48.184 128.124 -104.294 186.462 -156.334
c73.07 -65.184 113.096 -116.99 155.308 -168.962c17.492 -21.538 30.788 -42.954 52.906 -65.602c103.798 154.392 241.562 282.282 391.536 391.3c-89.142 52.602 -187.116 91.35 -288.708 111.026c-53.956 8.052 -21.554 4.176 -97.496 8.844zM492.554 709.386
c-19.03 -2.852 -38.378 -4.076 -57.092 -8.558c-104.778 -25.104 -192.21 -99.564 -227.206 -202.012c101.388 34.332 204.986 70.872 314.002 65.452c101.792 1.806 197.96 -34.132 293.124 -65.452c-34.732 104.802 -128.492 183.904 -236.508 203.782
c-47.55 8.306 -18.916 4.692 -86.32 6.788z" />
    <glyph glyph-name="dfc-emrakul" unicode="&#xe90a;" 
d="M512.274 960c282.77 0 512.002 -229.23 512.002 -512s-229.232 -512 -512 -512c-282.77 0 -512 229.23 -512 512c0 282.77 229.23 512 512 512h-0.002zM510.064 886.594c-17.724 -3.852 -28.122 -19.27 -40.314 -31.348c-83.002 -93.4 -188.476 -162.34 -295.172 -225.47
c-30.572 -12.688 -31.488 -51.972 -19.72 -78.112c67.872 -16.508 139.716 -4.432 207.126 -22.622c30.114 -19.262 28.586 -59.004 20.636 -89.424c-20.94 -29.196 -60.684 -42.342 -74.442 -76.582c15.898 -32.254 38.95 -62.54 58.21 -92.804
c-9.17 -29.046 -20.3 -65.866 8.588 -87.418c-1.374 10.546 -5.244 36.394 -2.378 41.888c2.868 5.492 13.138 12.42 18.124 8.556c4.27 -11.03 25.528 -62.826 38.674 -94.162c-7.28 2.926 -17.456 4.738 -28.376 8.938c-11.318 4.352 -23.386 11.094 -30.934 14.128
c13.146 -34.698 42.19 -55.166 71.998 -74.58c-1.53 -11.464 -4.586 -34.24 -6.27 -45.552c-30.264 1.986 -66.798 13.758 -26.138 58.088c-9.17 -9.174 -27.284 -24.456 -35.166 -35.44c-23.188 -32.324 33.18 -46.342 52.286 -62.39
c16.358 15.284 45.096 25.526 43.106 52.736c2.142 71.232 33.936 136.656 41.12 207.43c4.74 -71.08 28.892 -147.144 39.896 -207.904c4.688 -25.874 25.988 -36.52 42.19 -51.498c23.848 12.532 69.17 34.858 65.386 44.428c-9.146 23.132 -30.074 33.682 -46.89 52.026
c36.382 -42.648 7.982 -57.282 -22.136 -57.28c-3.342 -0.002 -6.926 11.94 -9.076 23.646c-1.492 8.122 -2.118 16.086 -3.946 24.156c34.242 13.298 61.298 37.298 73.526 72.456c-14.674 -5.81 -44.328 -17.274 -59.156 -23.082
c18.496 31.03 19.528 72.058 51.436 98.198c11.106 9.094 4.12 -64.228 10.93 -51.59c20.598 38.214 13.606 55.348 2.598 85.922c19.262 30.57 41.274 59.614 57.476 92.022c-16.356 32.404 -52.736 47.08 -74.596 75.052c-8.558 30.42 -10.088 70.164 19.72 89.882
c67.716 18.496 140.218 5.132 208.348 22.472c7.656 1.948 8.606 7.174 10.03 15.252c3.178 18.002 7.148 40.73 -5.904 48.642c-89.512 54.266 -180.832 107.154 -258.026 178.542c-34.088 28.278 -60.38 64.506 -94.926 92.326zM529.06 333.534
c22.318 -28.738 44.942 -57.476 68.788 -85.144c-7.95 -24.916 -16.204 -49.678 -25.07 -74.288c-21.4 51.054 -36.838 104.402 -43.718 159.432zM491.61 334.298c-6.878 -55.03 -21.858 -108.378 -42.802 -159.584c-9.018 23.692 -17.73 47.538 -26.598 71.232
c-0.066 0.224 46.776 58.544 69.4 88.352zM559.632 402.168c32.712 -9.324 64.202 -22.47 93.55 -39.744c-13.298 -22.776 -27.056 -45.246 -40.966 -67.716c-21.248 33.934 -39.132 69.856 -52.584 107.46zM461.19 402.168
c-13.298 -37.756 -33.102 -70.536 -54.198 -104.47c-13.91 22.47 -25.9 42.102 -39.352 64.726c29.502 17.12 60.838 30.42 93.55 39.744z" />
    <glyph glyph-name="dfc-moon" unicode="&#xe90b;" 
d="M512 960c282.77 0 512 -229.23 512 -512s-229.23 -512 -512 -512v0.002c-282.77 -0.002 -512 229.228 -512 511.998s229.23 512 512 512zM511.998 860.93c-228.052 -0.002 -412.926 -184.876 -412.926 -412.928c0 -228.056 184.874 -412.93 412.926 -412.928
c228.056 -0.002 412.93 184.872 412.928 412.928c0.002 228.052 -184.872 412.926 -412.928 412.926zM518.632 801.094l65.69 -5.074l-2.104 -9.066c-99.728 -11.98 -205.286 -27.038 -291.576 -81.596c-21.534 -13.6 4.532 -34.808 20.722 -33.676
c45.008 -7.284 109.28 -9.552 124.498 -62.816c-14.57 -46.788 -56.016 -73.986 -104.098 -75.282c-7.448 -52.454 25.094 -103.452 7.608 -156.068c-16.676 -66.864 30.598 -131.622 93.576 -151.05c6.152 -56.988 71.074 -56.988 114.948 -51.808
c16.19 5.342 29.304 -3.238 37.074 -17.322c-67.996 -11.172 -118.022 -80.464 -192.01 -58.932c-85.32 23.476 -145.708 96.33 -198.324 163.678c-55.368 81.758 -83.054 187.316 -52.292 283.806c11.656 31.732 19.588 75.768 54.882 89.206
c39.828 -12.466 55.694 -59.578 94.224 -75.282c18.942 12.142 38.856 30.112 32.38 55.206c-36.588 18.942 -94.71 23.962 -107.176 69.292c20.884 43.39 61.682 81.92 104.91 104.262c108.92 13.708 43.39 7.506 197.068 12.522zM742.008 293.218
c23.37 -2.642 38.182 -13.11 49.706 -32.754c28.332 -47.922 -24.772 -100.376 -71.56 -104.1c-60.226 11.332 -59.254 105.394 -15.866 134.052c20.612 3.784 8.108 2.162 37.72 2.802zM557.476 376.502c40.426 -6.552 66.734 -24.334 51.616 -68.44
c-7.77 -43.712 -84.186 -80.302 -104.262 -26.55c-11.98 33.996 10.686 72.204 38.208 91.472zM772.568 607.338c36.942 -7.174 22.654 -0.212 45.21 -15.146c32.056 -40.798 63.494 -80.094 74.958 -134.212c5.052 -23.848 -2.412 -52.416 -6.784 -50.148
c-30.436 -30.6 -49.718 -59.134 -91.002 -76.618c-69.938 -17 -152.992 51.644 -141.174 124.498c18.134 36.264 39.342 71.072 54.398 108.796c13.7 31.482 34.216 35.104 64.394 42.83zM517.728 490.354c12.348 0 22.356 -10.01 22.356 -22.356
c0 -12.348 -10.008 -22.358 -22.356 -22.356c-12.346 -0.002 -22.356 10.008 -22.356 22.356c0 12.346 10.01 22.356 22.356 22.356zM588.086 553.806c9.078 0 16.438 -7.36 16.436 -16.438c0.002 -9.08 -7.358 -16.44 -16.436 -16.44c-9.08 0 -16.44 7.36 -16.44 16.44
c0 9.078 7.36 16.438 16.44 16.438zM644.408 711.286c43.19 -9.114 73.904 -31.922 61.986 -79.914c-46.466 -30.924 -105.882 29.788 -77.55 76.09z" />
    </font>
</defs>
</svg>
